<?xml version="1.0" encoding="UTF-8"?>
<svg id="Capa_1" data-name="Capa 1" xmlns="http://www.w3.org/2000/svg" version="1.1" viewBox="0 0 296.79 53.44">
  <defs>
    <style>
      .cls-1 {
        fill: #039aae;
        stroke-width: 0px;
      }
    </style>
  </defs>
  <path class="cls-1" d="M8.31,23.95c-.45,0-.91,0-1.38-.03-.47-.02-.96-.05-1.45-.08-.49-.04-.99-.09-1.49-.15V7.59c.48-.1,1-.2,1.56-.27.55-.08,1.12-.14,1.69-.18.57-.04,1.13-.06,1.67-.06,2.91,0,5.1.69,6.58,2.06,1.48,1.37,2.22,3.5,2.22,6.39,0,1.97-.35,3.57-1.04,4.81-.69,1.24-1.74,2.15-3.13,2.74-1.39.58-3.14.88-5.23.88ZM9.05,21.49c1.24,0,2.28-.2,3.11-.6.83-.4,1.45-1.04,1.86-1.92.41-.88.62-2.03.62-3.46s-.21-2.57-.62-3.45c-.41-.88-1.03-1.52-1.85-1.93-.82-.41-1.85-.61-3.07-.61-.33,0-.68.02-1.04.05-.37.03-.73.08-1.08.14v11.68c.33.04.67.06,1,.08.33.01.69.02,1.07.02Z"/>
  <path class="cls-1" d="M20.37,23.8V7.26h2.98v16.54h-2.98Z"/>
  <path class="cls-1" d="M26.62,23.8V7.59c.47-.1.97-.19,1.5-.27s1.08-.15,1.65-.19,1.15-.07,1.75-.07c2.31,0,4.04.42,5.19,1.26,1.15.84,1.73,2.14,1.73,3.92,0,1.15-.27,2.11-.82,2.88-.55.77-1.34,1.36-2.37,1.75-1.03.39-2.28.59-3.74.59-.38,0-.72,0-1.02-.02-.3-.01-.61-.03-.93-.04v6.4h-2.94ZM31.55,15.2c1.4,0,2.43-.24,3.08-.71.66-.47.98-1.22.98-2.25,0-.68-.14-1.24-.41-1.68-.27-.43-.69-.75-1.25-.96-.56-.21-1.28-.31-2.15-.31-.45,0-.85.02-1.2.06s-.7.09-1.04.15v5.6c.24.02.46.04.67.06s.41.03.63.03c.21,0,.45.01.7.01ZM36.46,23.8l-5.5-7.69h3.23l5.58,7.69h-3.31Z"/>
  <path class="cls-1" d="M41.74,23.8V7.26h11.12v2.43h-8.17v11.69h8.28v2.42h-11.23ZM43.54,16.54v-2.42h8.2v2.42h-8.2Z"/>
  <path class="cls-1" d="M62.73,24.01c-1.29,0-2.44-.16-3.46-.47-1.02-.32-1.88-.81-2.59-1.49-.71-.67-1.25-1.55-1.62-2.62-.37-1.07-.56-2.36-.56-3.87,0-1.93.33-3.52.99-4.78.66-1.26,1.61-2.2,2.87-2.81,1.25-.62,2.77-.92,4.55-.92.63,0,1.24.04,1.83.11.59.07,1.17.18,1.73.32v2.49c-.54-.14-1.09-.25-1.65-.31-.55-.07-1.12-.1-1.7-.1-1.21,0-2.23.2-3.04.59-.81.4-1.42,1.03-1.83,1.91-.41.88-.61,2.03-.61,3.47s.21,2.66.62,3.54c.41.88,1.01,1.5,1.8,1.88.79.38,1.77.57,2.93.57.58,0,1.16-.04,1.72-.13.57-.09,1.15-.23,1.75-.41v2.49c-.54.17-1.12.31-1.77.41s-1.3.15-1.98.15Z"/>
  <path class="cls-1" d="M75.87,24.01c-1.29,0-2.44-.16-3.46-.47s-1.88-.81-2.59-1.49c-.71-.67-1.25-1.55-1.62-2.62-.37-1.07-.56-2.36-.56-3.87,0-1.93.33-3.52.99-4.78.66-1.26,1.62-2.2,2.87-2.81,1.25-.62,2.77-.92,4.55-.92.63,0,1.24.04,1.83.11.59.07,1.17.18,1.73.32v2.49c-.54-.14-1.09-.25-1.65-.31-.56-.07-1.12-.1-1.7-.1-1.21,0-2.23.2-3.04.59-.81.4-1.42,1.03-1.83,1.91-.41.88-.61,2.03-.61,3.47s.21,2.66.61,3.54c.41.88,1.01,1.5,1.8,1.88.79.38,1.77.57,2.93.57.58,0,1.15-.04,1.72-.13.57-.09,1.15-.23,1.75-.41v2.49c-.54.17-1.12.31-1.77.41-.64.1-1.3.15-1.98.15Z"/>
  <path class="cls-1" d="M81.75,23.8V7.26h2.98v16.54h-2.98Z"/>
  <path class="cls-1" d="M94.85,24.01c-1.5,0-2.8-.3-3.92-.9-1.12-.6-1.99-1.53-2.61-2.78-.62-1.25-.93-2.85-.93-4.79s.31-3.54.93-4.79c.62-1.25,1.49-2.18,2.61-2.78s2.42-.91,3.92-.91,2.82.3,3.93.91,1.99,1.53,2.6,2.79c.62,1.26.93,2.85.93,4.79s-.31,3.53-.93,4.79c-.62,1.25-1.49,2.18-2.61,2.79-1.12.6-2.43.9-3.93.9ZM94.85,21.56c.91,0,1.69-.2,2.35-.59s1.16-1.03,1.51-1.91c.35-.88.53-2.03.53-3.47s-.18-2.67-.54-3.56c-.36-.89-.86-1.54-1.52-1.94-.66-.4-1.43-.6-2.34-.6s-1.67.2-2.33.59c-.66.39-1.17,1.02-1.52,1.9-.36.88-.54,2.04-.54,3.48s.18,2.68.54,3.58c.36.89.86,1.54,1.52,1.93.66.39,1.43.59,2.33.59ZM93.51,5.92l2.01-3.31h3.11l-2.46,3.31h-2.66Z"/>
  <path class="cls-1" d="M104.97,23.8V7.26h3.02l8.42,12.9h-.56V7.26h2.82v16.54h-3.02l-8.42-12.9h.56v12.9h-2.82Z"/>
  <path class="cls-1" d="M127.49,23.8V7.54c.75-.15,1.5-.26,2.28-.35s1.59-.12,2.46-.12c2.36,0,4.14.47,5.33,1.41,1.2.94,1.79,2.42,1.79,4.45,0,1.92-.58,3.37-1.75,4.36-1.17.99-2.94,1.49-5.32,1.49-.32,0-.62,0-.91-.02-.29-.01-.59-.03-.9-.06v5.1h-2.98ZM132.32,16.5c1.44,0,2.48-.28,3.14-.85.66-.57.98-1.47.98-2.7s-.32-2.17-.97-2.74-1.64-.85-2.98-.85c-.39,0-.74.01-1.06.04s-.64.07-.95.13v6.87c.31.04.6.06.89.08.29.02.61.03.95.03Z"/>
  <path class="cls-1" d="M141.87,23.8V7.59c.47-.1.97-.19,1.5-.27.53-.08,1.08-.15,1.65-.19.57-.04,1.15-.07,1.75-.07,2.31,0,4.04.42,5.19,1.26,1.15.84,1.73,2.14,1.73,3.92,0,1.15-.27,2.11-.82,2.88-.55.77-1.34,1.36-2.37,1.75-1.03.39-2.28.59-3.74.59-.38,0-.72,0-1.02-.02-.3-.01-.61-.03-.93-.04v6.4h-2.94ZM146.8,15.2c1.4,0,2.43-.24,3.08-.71.66-.47.98-1.22.98-2.25,0-.68-.14-1.24-.41-1.68-.27-.43-.69-.75-1.25-.96-.56-.21-1.28-.31-2.15-.31-.45,0-.85.02-1.2.06-.35.04-.7.09-1.04.15v5.6c.24.02.46.04.67.06.2.01.41.03.62.03.21,0,.45.01.7.01ZM151.71,23.8l-5.5-7.69h3.23l5.58,7.69h-3.31Z"/>
  <path class="cls-1" d="M163.08,24.01c-1.5,0-2.8-.3-3.92-.9-1.12-.6-1.99-1.53-2.61-2.78-.62-1.25-.93-2.85-.93-4.79s.31-3.54.93-4.79c.62-1.25,1.49-2.18,2.61-2.78s2.42-.91,3.92-.91,2.82.3,3.93.91,1.99,1.53,2.6,2.79c.62,1.26.93,2.85.93,4.79s-.31,3.53-.93,4.79c-.62,1.25-1.49,2.18-2.61,2.79-1.12.6-2.43.9-3.93.9ZM163.08,21.56c.91,0,1.69-.2,2.35-.59s1.16-1.03,1.51-1.91c.35-.88.53-2.03.53-3.47s-.18-2.67-.54-3.56c-.36-.89-.86-1.54-1.52-1.94-.66-.4-1.43-.6-2.34-.6s-1.67.2-2.33.59c-.66.39-1.17,1.02-1.52,1.9-.36.88-.54,2.04-.54,3.48s.18,2.68.54,3.58c.36.89.86,1.54,1.52,1.93.66.39,1.43.59,2.33.59Z"/>
  <path class="cls-1" d="M176.71,23.8l-5.52-16.54h3.14l4.98,15.28h-.65l5.04-15.28h2.93l-5.52,16.54h-4.4Z"/>
  <path class="cls-1" d="M188.31,23.8V7.26h2.98v16.54h-2.98Z"/>
  <path class="cls-1" d="M194.56,23.8V7.26h3.02l8.42,12.9h-.56V7.26h2.82v16.54h-3.02l-8.42-12.9h.56v12.9h-2.82Z"/>
  <path class="cls-1" d="M219.12,24.01c-1.29,0-2.44-.16-3.46-.47-1.02-.32-1.88-.81-2.59-1.49-.71-.67-1.25-1.55-1.62-2.62-.37-1.07-.56-2.36-.56-3.87,0-1.93.33-3.52.99-4.78.66-1.26,1.61-2.2,2.87-2.81,1.25-.62,2.77-.92,4.55-.92.63,0,1.24.04,1.83.11.59.07,1.17.18,1.73.32v2.49c-.54-.14-1.09-.25-1.65-.31-.55-.07-1.12-.1-1.7-.1-1.21,0-2.23.2-3.04.59-.81.4-1.42,1.03-1.83,1.91-.41.88-.61,2.03-.61,3.47s.21,2.66.62,3.54c.41.88,1.01,1.5,1.8,1.88.79.38,1.77.57,2.93.57.58,0,1.16-.04,1.72-.13.57-.09,1.15-.23,1.75-.41v2.49c-.54.17-1.12.31-1.77.41s-1.3.15-1.98.15Z"/>
  <path class="cls-1" d="M225,23.8V7.26h2.98v16.54h-2.98Z"/>
  <path class="cls-1" d="M229.82,23.8l5.55-16.54h4.32l5.55,16.54h-2.96l-4.95-15.21h.35l-4.94,15.21h-2.93ZM233.33,19.05l.65-2.4h7.11l.65,2.4h-8.4Z"/>
  <path class="cls-1" d="M247.1,23.8V7.26h2.98v14.02h7.8v2.51h-10.78Z"/>
  <path class="cls-1" d="M269.5,23.95c-.45,0-.91,0-1.38-.03-.47-.02-.96-.05-1.45-.08-.49-.04-.99-.09-1.49-.15V7.59c.48-.1,1-.2,1.56-.27.55-.08,1.12-.14,1.69-.18.57-.04,1.13-.06,1.67-.06,2.91,0,5.1.69,6.58,2.06,1.48,1.37,2.22,3.5,2.22,6.39,0,1.97-.35,3.57-1.04,4.81-.69,1.24-1.74,2.15-3.13,2.74-1.39.58-3.14.88-5.23.88ZM270.24,21.49c1.24,0,2.28-.2,3.11-.6.83-.4,1.45-1.04,1.86-1.92.41-.88.61-2.03.61-3.46s-.21-2.57-.61-3.45c-.41-.88-1.03-1.52-1.85-1.93-.82-.41-1.85-.61-3.07-.61-.33,0-.68.02-1.04.05-.37.03-.73.08-1.08.14v11.68c.33.04.67.06,1,.08.33.01.69.02,1.07.02Z"/>
  <path class="cls-1" d="M281.56,23.8V7.26h11.12v2.43h-8.17v11.69h8.28v2.42h-11.23ZM283.36,16.54v-2.42h8.2v2.42h-8.2Z"/>
  <path class="cls-1" d="M4,50.61v-16.54h2.98v16.54h-2.98Z"/>
  <path class="cls-1" d="M10.25,50.61v-16.54h3.02l8.42,12.9h-.56v-12.9h2.82v16.54h-3.02l-8.42-12.9h.56v12.9h-2.82Z"/>
  <path class="cls-1" d="M27.2,50.61v-16.54h3.02l8.41,12.9h-.56v-12.9h2.82v16.54h-3.02l-8.41-12.9h.56v12.9h-2.82Z"/>
  <path class="cls-1" d="M51,50.83c-1.5,0-2.8-.3-3.92-.9-1.12-.6-1.99-1.53-2.61-2.78-.62-1.25-.93-2.85-.93-4.79s.31-3.54.93-4.79c.62-1.25,1.49-2.18,2.61-2.78,1.12-.6,2.42-.91,3.92-.91s2.82.3,3.93.91c1.12.6,1.98,1.53,2.6,2.79.62,1.26.93,2.85.93,4.79s-.31,3.53-.93,4.79c-.62,1.25-1.49,2.18-2.61,2.79-1.12.6-2.43.9-3.93.9ZM51,48.38c.91,0,1.69-.2,2.35-.59.66-.39,1.16-1.03,1.51-1.91.35-.88.53-2.03.53-3.47s-.18-2.67-.54-3.56c-.36-.89-.86-1.54-1.52-1.94s-1.43-.6-2.33-.6-1.67.2-2.33.59c-.66.39-1.17,1.02-1.53,1.9-.36.88-.54,2.04-.54,3.48s.18,2.68.54,3.58c.36.89.86,1.54,1.52,1.93s1.43.59,2.34.59Z"/>
  <path class="cls-1" d="M64.63,50.61l-5.52-16.54h3.14l4.98,15.28h-.65l5.04-15.28h2.93l-5.52,16.54h-4.4Z"/>
  <path class="cls-1" d="M73.67,50.61l5.55-16.54h4.32l5.55,16.54h-2.96l-4.95-15.21h.35l-4.94,15.21h-2.93ZM77.18,45.87l.65-2.4h7.11l.65,2.4h-8.4Z"/>
  <path class="cls-1" d="M98.21,50.83c-1.29,0-2.44-.16-3.46-.47-1.02-.32-1.88-.81-2.59-1.49-.71-.67-1.25-1.55-1.62-2.62-.37-1.07-.56-2.36-.56-3.87,0-1.93.33-3.52.99-4.78.66-1.26,1.61-2.2,2.87-2.81,1.25-.62,2.77-.92,4.55-.92.63,0,1.24.04,1.83.11.59.07,1.17.18,1.73.32v2.49c-.54-.14-1.09-.25-1.65-.31-.55-.07-1.12-.1-1.7-.1-1.21,0-2.23.2-3.04.59-.81.4-1.42,1.03-1.83,1.91-.41.88-.61,2.03-.61,3.47s.21,2.66.62,3.54c.41.88,1.01,1.5,1.8,1.88.79.38,1.77.57,2.93.57.58,0,1.16-.04,1.72-.13.57-.09,1.15-.23,1.75-.41v2.49c-.54.17-1.12.31-1.77.41s-1.3.15-1.98.15Z"/>
  <path class="cls-1" d="M104.09,50.61v-16.54h2.98v16.54h-2.98Z"/>
  <path class="cls-1" d="M117.19,50.83c-1.5,0-2.8-.3-3.92-.9-1.12-.6-1.99-1.53-2.61-2.78-.62-1.25-.93-2.85-.93-4.79s.31-3.54.93-4.79c.62-1.25,1.49-2.18,2.61-2.78,1.12-.6,2.42-.91,3.92-.91s2.82.3,3.93.91c1.12.6,1.98,1.53,2.6,2.79.62,1.26.93,2.85.93,4.79s-.31,3.53-.93,4.79c-.62,1.25-1.49,2.18-2.61,2.79-1.12.6-2.43.9-3.93.9ZM117.19,48.38c.91,0,1.69-.2,2.35-.59.66-.39,1.16-1.03,1.51-1.91.35-.88.53-2.03.53-3.47s-.18-2.67-.54-3.56c-.36-.89-.86-1.54-1.52-1.94s-1.43-.6-2.33-.6-1.67.2-2.33.59c-.66.39-1.17,1.02-1.53,1.9-.36.88-.54,2.04-.54,3.48s.18,2.68.54,3.58c.36.89.86,1.54,1.52,1.93s1.43.59,2.34.59ZM115.85,32.74l2.01-3.31h3.11l-2.46,3.31h-2.66Z"/>
  <path class="cls-1" d="M127.31,50.61v-16.54h3.02l8.42,12.9h-.56v-12.9h2.82v16.54h-3.02l-8.42-12.9h.56v12.9h-2.82Z"/>
  <path class="cls-1" d="M154.14,50.77c-.45,0-.91,0-1.38-.03-.47-.02-.96-.05-1.45-.08-.49-.04-.99-.09-1.49-.15v-16.1c.48-.1,1-.2,1.56-.27.55-.08,1.12-.14,1.69-.18.57-.04,1.13-.06,1.67-.06,2.91,0,5.1.69,6.58,2.06s2.22,3.5,2.22,6.39c0,1.97-.35,3.57-1.04,4.81-.69,1.24-1.74,2.15-3.13,2.74-1.39.58-3.14.88-5.23.88ZM154.88,48.31c1.24,0,2.28-.2,3.11-.6.83-.4,1.45-1.04,1.86-1.92.41-.88.62-2.03.62-3.46s-.21-2.57-.62-3.45c-.41-.88-1.03-1.52-1.85-1.93-.82-.41-1.85-.61-3.07-.61-.33,0-.68.02-1.04.05-.37.03-.73.08-1.08.14v11.68c.33.04.67.06,1,.08.33.01.69.02,1.07.02Z"/>
  <path class="cls-1" d="M166.2,50.61v-16.54h2.98v16.54h-2.98Z"/>
  <path class="cls-1" d="M180.95,50.78c-2.02,0-3.7-.3-5.05-.9s-2.36-1.52-3.04-2.76-1.02-2.82-1.02-4.74.35-3.53,1.05-4.79c.7-1.26,1.72-2.19,3.05-2.8,1.33-.62,2.94-.92,4.83-.92.64,0,1.27.04,1.89.11.62.07,1.23.19,1.83.33v2.49c-.61-.16-1.2-.27-1.77-.33-.57-.07-1.14-.1-1.71-.1-1.33,0-2.45.2-3.34.59-.89.4-1.57,1.04-2.02,1.92-.45.89-.68,2.06-.68,3.53,0,1.39.21,2.51.64,3.38.42.87,1.07,1.5,1.92,1.9.86.4,1.93.6,3.21.6.48,0,.94-.02,1.4-.06.45-.04.88-.09,1.26-.16l-1.26,1.14v-6.66h2.8v7.87c-.71.12-1.39.21-2.03.26-.65.06-1.3.08-1.94.08Z"/>
  <path class="cls-1" d="M188.06,50.61v-16.54h2.98v16.54h-2.98Z"/>
  <path class="cls-1" d="M198.14,50.61v-14.02h-5.32v-2.51h13.63v2.51h-5.32v14.02h-2.99Z"/>
  <path class="cls-1" d="M204.96,50.61l5.55-16.54h4.32l5.55,16.54h-2.96l-4.95-15.21h.35l-4.94,15.21h-2.93ZM208.47,45.87l.65-2.4h7.11l.65,2.4h-8.4Z"/>
  <path class="cls-1" d="M222.24,50.61v-16.54h2.98v14.02h7.8v2.51h-10.78Z"/>
</svg>