<?xml version="1.0" encoding="UTF-8"?>
<svg id="Capa_1" data-name="Capa 1" xmlns="http://www.w3.org/2000/svg" version="1.1" xmlns:xlink="http://www.w3.org/1999/xlink" viewBox="0 0 595.28 191.11">
  <defs>
    <style>
      .cls-1 {
        fill: url(#Degradado_sin_nombre_3);
      }

      .cls-1, .cls-2, .cls-3, .cls-4 {
        stroke-width: 0px;
      }

      .cls-2 {
        fill: #08afc4;
      }

      .cls-3 {
        fill: none;
      }

      .cls-4 {
        fill: #727070;
      }

      .cls-5 {
        clip-path: url(#clippath);
      }
    </style>
    <clipPath id="clippath">
      <path class="cls-3" d="M57,168.02c.13.06.26.13.39.2.45.26,1.67,2.03,2.2,2.82.04.05,1.88,1.73,2.91,2.18,1.27.55,3.91,1.04,4.59.92,0,0,.02,0,.02,0h0c.07-.01.14-.02.21-.03h0c.81-.09,1.58.04,2.43.46.19.1.55.45.93.88-.02.01-.04.02-.06.03l.78,1.22c.08-.04.15-.09.23-.13.41-.23.8-.49,1.16-.75-.06-.06-.11-.12-.17-.18-.26-.27-.5-.58-.74-.88-.35-.44-.72-.86-1.2-1.18-1.16-.76-2.51-1.03-3.73-.86-.02,0-2.12-.05-3.24-.52-1.26-.52-2.61-1.6-3.54-2.72-.58-.7-1.01-1.59-1.79-2.18-.43-.33-.9-.58-1.39-.76v1.48ZM69.4,163.76l1.44-1.81c.82.54,1.54,1.08,2.14,1.56l-1.55,2.02c-.6-.62-1.28-1.22-2.03-1.77M66.3,161.81l1.4-1.75c.75.4,1.47.82,2.15,1.24l-1.41,1.77c-.68-.45-1.39-.87-2.13-1.26M61.9,159.99l1.49-1.87c1.07.38,2.16.86,3.22,1.38l-1.41,1.76c-1.08-.5-2.19-.93-3.31-1.28M59.57,159.39c-.52-.1-1.04-.19-1.56-.26l1.47-1.91c.26.03.51.06.77.09.62.09,1.27.23,1.94.43l-1.52,1.91c-.37-.09-.73-.18-1.09-.25M57.09,158.06l-.09.94v1.55l.07-.12c.68.08,1.37.18,2.05.32,4.56.92,8.77,3.08,11.41,5.95.1.11.49.44.49.44,1,.89,2.53,1.65,4.15,2.04-.48,1.81-.94,2.57-1.8,3.38-.31-.38-.65-.74-1.07-1.02-1.16-.76-2.51-1.03-3.73-.86-.02,0-2.12-.05-3.24-.52-1.26-.52-2.61-1.6-3.54-2.72-.58-.7-1.01-1.59-1.79-2.18-.91-.69-1.98-1.06-3.02-1.11v1.4c.68.03,1.33.22,2.02.62.45.26,1.67,2.03,2.2,2.81.04.06,1.88,1.73,2.91,2.18,1.27.55,3.91,1.04,4.59.92,0,0,.02,0,.02,0h0c.07-.01.14-.02.21-.03h0c.81-.09,1.58.04,2.43.46.2.1.55.45.93.88-.02.01-.04.02-.06.03l.78,1.22c.08-.04.15-.09.23-.13,0,0,.02-.01.03-.02l.04.04c.07-.06.14-.12.21-.18.31-.19.61-.39.9-.6-.05-.05-.09-.09-.13-.13,1.19-1.25,2-2.68,2.38-4.21,0,0,.1-.43.1-.43.03-.18.13-.99.13-.99-.26-.02-.52-.05-.79-.09l.73-.94.61-.79.71-.86-3.49-.66,1.73,1.84-.97,1.26c-.94-.28-1.99-.88-2.78-1.39l1.46-1.9.92-1.19c-.18-.11-.98-.77-1.17-.92-3-2.42-9.01-5.84-13.39-6.45-.01,0-.02,0-.03,0-.57-.08-2.71-.27-3.28-.31l-.06,2.45ZM67.87,152.77c3.42.45,6.18,2.49,7.59,3.7l1-1.93c-1.59-1.36-3.55-3.25-7.51-3.77l-1.08,2ZM69.93,148.97c3.42.45,6.16,2.48,7.57,3.69l1.02-1.91c-1.59-1.36-3.62-3.11-7.58-3.63l-1,1.85ZM57.06,147.45s.27.02.29.02c2.69.8,5.06,2.36,6.16,3.3l1-1.86c-1.28-1.09-4.28-2.8-7.39-3.65-.15.49-.06,1.88-.06,2.19M71.92,145.48c3.42.45,6.11,2.36,7.52,3.57l1.02-1.88c-1.59-1.36-3.61-3.15-7.56-3.67l-.98,1.98ZM60.35,141.44s0,.07,0,.1c-1.07-.35-2.18-.63-3.28-.77l-.06,1.18v1.02c3.38.45,7.29,2.55,8.68,3.72l1.01-1.86c-.9-.76-2.62-1.8-4.66-2.66.02-.02.04-.03.06-.05.21-.2.79-1.02.52-1.21-.26-.18-.79.04-1.17.3-.05-.41-.2-.84-.46-.92-.01,0-.03,0-.05,0-.29,0-.57.88-.6,1.16M59.38,136.16c-.22-.42-.64-.94-.97-.89-.32.05-.16,1.04-.07,1.31.02.05.04.1.06.16-.47-.08-.93-.16-1.4-.22v2.15c4.02.64,7.85,2.06,11.01,3.89l1.11-2.05c-.14-.08-.19-.11-.34-.19-.39-.22-.8-.42-1.2-.63.2,0,.39-.15.56-.31.21-.2.8-1.02.53-1.2-.26-.18-.8.04-1.18.3-.05-.4-.19-.82-.45-.9-.31-.1-.61.86-.65,1.14-.02.15-.02.29,0,.42-1.97-.87-4.1-1.55-6.29-2.05.15-.11.24-.3.31-.5.1-.27.26-1.27-.07-1.31-.02,0-.03,0-.05,0-.33,0-.72.49-.93.9M130.75,121.82c-.24.06-.44.22-.56.43-.12.21-.16.46-.1.7.06.24.22.44.43.56.14.08.3.13.46.13.08,0,.16-.01.24-.03.24-.06.44-.22.56-.43.12-.21.16-.46.1-.7-.06-.24-.22-.44-.43-.56-.14-.08-.3-.13-.46-.13-.08,0-.16.01-.24.03M70.66,156.74c-1.01-.54-4.28-1.83-5.73-2.41l7.96-14.13c1.16.42,3.61,1.28,5.38,2.08.61.28,1.41.76,2.2,1.29,1.07.71,2.11,1.5,2.65,1.95l-7.51,14.38c-1.23-.85-3.95-2.63-4.95-3.16M73.24,127.77s.04-.01.06-.02c.04.04.09.08.14.11-.07-.03-.13-.06-.2-.09M57,119.93c.46,0,.92.03,1.38.05.64.03,1.27.08,1.9.15.36.04.72.08,1.07.12.05,0,.09.01.13.02,0,0,.15.02.2.03.2.03.39.06.59.09,1.63.26,3.24.61,4.82,1.08.87.26,1.74.55,2.59.87.22.08.43.17.65.26.09.04.17.07.26.11.02,0,.04.02.05.02.08.03.16.07.24.11.44.19.87.39,1.3.6,1,.49,1.97,1.04,2.91,1.64,1.03.65,1.93,1.31,2.81,2.04.01,0,.02.02.03.02,0,0,.02.02.03.03-.73.62-1.41,1.27-2.03,1.94-.78-.42-1.58-.82-2.39-1.19.26.09.51-.08.72-.29.21-.2.8-1.02.53-1.2-.26-.18-.8.04-1.18.3-.05-.4-.19-.82-.44-.9-.31-.1-.62.86-.65,1.14-.02.18-.03.37.03.52-2.1-.88-4.31-1.57-6.61-2.08.1-.08.19-.18.27-.3.17-.23.6-1.15.3-1.28-.29-.13-.77.18-1.1.5-.12-.39-.34-.79-.61-.83-.32-.04-.45.96-.43,1.24,0,.12.02.25.05.35-1.46-.27-2.95-.46-4.46-.58.06-.09.11-.21.15-.32.1-.27.26-1.27-.07-1.31-.34-.05-.76.47-.97.89-.21-.42-.64-.94-.97-.89-.32.05-.16,1.04-.07,1.31.03.08.06.15.09.22-.06,0-.12,0-.17,0-.23,0-.69-.01-.91-.02l-.04,2.6h.23c.21,0,.42,0,.64.02,5.99.19,11.67,1.7,16.38,4.17-.54.75-1.01,1.54-1.43,2.34-.82-.43-1.66-.82-2.53-1.17.08-.05.16-.12.23-.19.21-.2.8-1.02.53-1.2-.26-.18-.8.04-1.18.3-.05-.4-.19-.82-.45-.9-.31-.1-.61.86-.65,1.14-.01.09-.02.18-.02.27-1.39-.49-2.83-.9-4.3-1.21.02-.02.03-.04.05-.07.17-.23.6-1.14.3-1.28-.29-.13-.77.18-1.1.5-.12-.39-.34-.79-.61-.83-.32-.04-.45.96-.43,1.24,0,.03,0,.06,0,.09-.97-.16-1.96-.28-2.96-.36.05-.09.09-.18.13-.28.1-.27.26-1.27-.07-1.32-.34-.05-.76.47-.97.89-.21-.42-.64-.94-.97-.89-.32.05-.16,1.04-.07,1.32.02.06.05.12.07.17-.22,0-.58,0-.75-.01l-.04,2.3c.18,0,.6,0,.78.01,8.65.27,16.57,3.78,21.06,9.05-2.62-1.18-5.9-2.3-6.04-2.35l-.83-.28-8.38,14.77c-1.43-1.16-3.49-2.35-6.53-2.94-.05-.01-.08.08-.1.22v1.09c.01.26.03.48.04.56,2.51.57,4.43,1.59,5.99,3.19h0s.02.02.02.02c0,0,0,0,0,0h0s1.05.41,1.05.41c.05.02,4.52,1.77,5.84,2.48,1.31.7,5.02,3.3,5.06,3.32l.96.67,8.96-16.85-.61-.54s-.05-.06-.73-.61l-.23-.51c-1.14-2.36-2.82-4.52-4.96-6.42.88-1.38,1.98-2.67,3.26-3.84l.02-2.8c-2.1,1.64-3.66,3.27-5.06,5.2-.54-.4-1.11-.79-1.7-1.16.07-.07.13-.17.19-.31.16-.39.89-1.73,1.15-2.08.52-.7,1.09-1.38,1.72-2.03.65-.67,1.35-1.3,2.1-1.9,2.07,1.08,4.3,1.81,6.68,1.73,1.33-.04,2.66-.3,3.95-.6.89-.21,1.75-.51,2.65-.7.1-.02.21-.04.31-.06,0,0,.05,0,.08-.01.04,0,.13-.02.14-.02.22-.02.44-.03.66-.03.5,0,.78.03,1.22.12,1.73.38,3.06,1.63,4.6,2.58,1.54.96,3.27,1.71,5.06,2.01.93.16,1.86.22,2.8.12.98-.1,1.92-.35,2.86-.63.8-.25,1.61-.46,2.42-.7.65-.19,1.29-.41,1.94-.57.35-.09.71-.16,1.06-.22,0,0,0,0,0,0h0s.08,0,.12-.01c.08,0,.17-.02.25-.02.19-.01.38-.02.57,0,.09,0,.19.02.28.02h0s.05,0,.07.01c.18.03.36.08.54.14.03,0,.05.02.08.03,0,0,.02,0,.03.02.07.04.14.07.21.11.12.07.23.14.35.22.1.06.2.13.29.19,1.04-.03,2.08-.09,3.12-.18-.61-.37-1.2-.76-1.8-1.15-.56-.37-1.12-.75-1.75-.99-.73-.27-1.56-.3-2.32-.21-1.42.16-2.74.67-4.11,1.02-.91.23-1.8.55-2.71.8-.95.26-1.64.38-2.59.36-.21,0-.43-.01-.64-.03-.1,0-.2-.02-.29-.03-.04,0-.07,0-.11-.01-.01,0-.06,0-.08-.01-.44-.07-.87-.17-1.3-.29-.9-.26-1.56-.53-2.37-.95-.79-.41-1.53-.9-2.25-1.41-.74-.52-1.48-1.06-2.31-1.43-.91-.41-1.87-.65-2.88-.7-.99-.05-1.96.14-2.9.4-.79.22-1.57.44-2.37.62-.32.07-.65.14-.97.19-.15.03-.3.05-.46.08-.07.01-.14.02-.21.03,0,0-.01,0-.02,0-.04,0-.08,0-.08,0-.6.07-1.21.11-1.82.09-.31,0-.63-.04-.94-.07-.01,0-.02,0-.02,0,0,0,0,0-.01,0-.07-.01-.14-.02-.21-.03-.17-.03-.33-.06-.5-.1-.7-.15-1.37-.37-2.03-.64-.03-.01-.12-.05-.14-.06-.08-.03-.16-.07-.24-.11-.2-.09-.39-.18-.58-.28-.38-.19-.76-.39-1.13-.61-.26-.15-.51-.3-.75-.45,0,0-.02,0-.02-.02-.15-.09-.29-.18-.43-.27-3.16-2.59-6.79-4.51-10.68-5.75-3.07-.98-6.27-1.54-9.48-1.75-.63-.04-1.26-.07-1.9-.08v1.84ZM82.92,116.67c0,.55.45,1,1,1s1-.45,1-1-.45-1-1-1-1,.45-1,1M101.99,119.8l1.25.68,2.73-5-1.25-.68-2.73,5ZM80.01,115.39c0,.55.45,1,1,1s1-.45,1-1-.45-1-1-1-1,.45-1,1M98.87,118.09l1.25.68,2.73-5-1.25-.68-2.73,5ZM95.74,116.39l1.25.68,2.73-5-1.25-.68-2.73,5ZM131.21,124.19c-.88-.66-1.78-1.76-2.47-2.98.82-.85,2.11-1.67,3.95-1.38.13.67.25,1.68.27,1.9v.02c.21,1.43-.13,2.81-.38,2.98-.04.01-.09.02-.14.02-.26,0-.7-.16-1.23-.56M129.27,117.6c.19-.15.44-.24.55-.26.1-.03.35-.07.59-.04.03.24.05.69-.05,1.3-.13.05-.26.1-.39.15-.41-.51-.61-.92-.69-1.15M127.51,116.25v-.03c.01-.26.15-.87.22-1.19l.03-.16s.01-.04.02-.06c.38-1.34,1.09-2.47,2.06-3.27.82-.67,1.9-1.1,3.33-1.31,1.94-.28,4.54,2.39,5.37,3.42.16.22.42.33.68.3.82-.09,1.32.12,1.62.38h-.02c-.5,0-1.09.1-1.74.42-.65.32-1.12.83-1.37,1.49-.05-.62.26-1.12.28-1.15.14-.21.16-.47.06-.69-.29-.7-.85-1.25-1.57-1.57-.77-.34-1.66-.38-2.58-.11-.66.19-1.16.6-1.49,1.22-.54,1-.58,2.53-.13,4.36-.14,0-.28,0-.42,0,.06-.69,0-1.29-.08-1.56-.1-.38-.31-.63-.63-.76-.78-.31-1.64-.09-1.72-.07-.1.02-.95.26-1.47.91-.54.67.06,1.55.26,1.84.07.1.16.27.26.44.07.12.14.24.21.36-.21.13-.41.27-.6.4-.39-.99-.73-2.28-.59-3.6M133.01,108.77c-1.53.11-2.95.68-4.11,1.64-1.17.97-2.04,2.33-2.51,3.91h0c-.12.34-.31,1.2-.35,1.78-.15,1.45.12,3,.82,4.64l.38.8c.8,1.55,1.95,2.98,3.08,3.83.88.66,1.58.86,2.11.86.28,0,.51-.06.7-.13,1.11-.45,1.59-2.07,1.3-4.45h0c-.04-.55-.35-2.48-.55-3.16-.18-.6-.3-1.17-.37-1.7,0-.02-.3-2.29.83-2.66,1.05-.3,1.83.05,2.21.57-.1.22-.2.52-.26.86-.12.7-.08,1.74.82,2.72.31.33.78.44,1.2.27.42-.17.69-.57.68-1.02-.01-.72.24-1.2.75-1.45.7-.34,1.28-.3,1.64-.2.41.11.85-.03,1.12-.36.26-.31.32-.73.16-1.1-.25-.6-.63-1.07-1.12-1.41-.57-.39-1.26-.58-2.06-.55-1.62-1.88-3.67-3.34-5.04-3.58-.07-.02-.6-.13-1.1-.13-.11,0-.21,0-.31.02M119.56,106.42l-.44.87s0,0,0,0c0,0,0,0,0,0,0,0,.02.02.03.03,0,0,0,0,.01,0,.02.02.03.03.06.06,0,0,0,0,0,0,.02.02.05.05.08.07,0,0,.01.01.02.02.03.03.06.05.1.08,0,0,.02.01.02.02.04.03.08.06.12.1,0,0,0,0,0,0,.04.03.09.07.14.1.01,0,.02.02.03.02.05.03.1.07.16.1.01,0,.02.01.04.02.06.04.12.07.19.11,0,0,0,0,0,0,.07.03.13.07.21.1.01,0,.03.01.04.02.07.03.14.06.22.09.02,0,.03.01.05.02.08.03.16.06.25.09,0,0,0,0,0,0,.08.03.18.05.26.07.02,0,.04,0,.05.01.09.02.18.04.28.05.02,0,.04,0,.06,0,.1.02.2.03.31.04h0c.1,0,.21.01.32.01.02,0,.04,0,.07,0,.09,0,.18,0,.27,0h0c.09,0,.19-.02.28-.03.03,0,.06,0,.09-.01.07,0,.14-.02.22-.04.03,0,.06-.01.09-.02.1-.02.2-.04.3-.07h0v-.15s.11-5.81.11-5.81c-.32,0-.63-.05-.94-.13-.3-.08-.59-.19-.86-.32l-2.27,4.42ZM124.97,102.25l1.82,5.66s2.48.15,3.9-2.33l-4.13-4.29c-.45.43-.99.76-1.6.95M114.13,101.41s-.15,2.48,2.32,3.9l4.28-4.12c-.44-.45-.77-.99-.97-1.59l-5.64,1.81ZM127.72,99.32c-.08.32-.2.62-.34.89l5.28,2.71s1.86-1.65,1.12-4.4l-5.93-.11c0,.3-.05.6-.12.91M120.72,98.31c0,1.65,1.34,2.99,2.99,2.99s2.99-1.34,2.99-2.99-1.34-2.99-2.99-2.99-2.99,1.34-2.99,2.99M147.08,94.29h0s0,0,0,0c0,0,0,0,0,0,0,0,0,0,0,0h0M146.19,93.77c-.34.01-.65.21-.81.51-.11.2-.19.41-.26.61-.28.71-.57,1.45-2.21,2.24-1.41.69-2.24,1.79-2.42,3.15-.56-.31-1.15-.54-1.65-.65-.96-.21-2.03.03-2.86.66-.58.43-.91.96-.95,1.5-.05.73.48,1.46,1.22,2.1-.82.16-1.63.28-2.41.38-.44.74-.94,1.42-1.52,2.03,2.02-.15,4.17-.49,6.44-1.04.37-.09.65-.4.71-.77.05-.38-.12-.75-.45-.95-.89-.52-1.79-1.25-2.05-1.62.22-.23.84-.59,1.48-.45.87.19,2.04.93,2.42,1.51l.04.06c.5.78,1.12.55,1.3.46.03-.02.76-.39.42-1.26-.93-2.43.61-3.17,1.11-3.42,1.2-.58,1.91-1.21,2.37-1.8-.11,1.27-1.3,2.25-1.48,2.39-.41.31-.48.89-.17,1.3.31.41.89.49,1.31.19.1-.08,1.02-.71,1.93-.13.49.37.92.26,1.13.16,1.17-.56,1.89-1.54,2.37-2.5.17.73.27,1.59.08,2.25-.15.51-.4.65-.61.71-.12.04-.75.25-.92.84-.09.33-.02.68.21.94,1.25,1.43,2.96,4.04,4.47,6.34,2.07,3.16,2.85,4.29,3.44,4.63.21.12.46.18.89.27.11.03.28.06.41.09.19.64-.14,1.79-.53,2.62l-.11.03c-.21.05-.4.18-.52.35-.48.65-1.3,1.68-1.6,1.93-.61.51-1.35.22-2.49-.33-.45-.22-.88-.42-1.31-.53-1.9-.47-4.21-.86-7-.28-1.28.27-2.59.73-3.88,1.38-1.54.77-2.38,4.26-2.68,5.72-.1.51.23,1,.74,1.1.06.01.12.02.19.02.44,0,.83-.31.92-.75.41-2.05,1.21-4.16,1.68-4.41,1.15-.57,2.3-.99,3.42-1.22,2.43-.5,4.48-.15,6.18.27.24.06.58.22.94.4,1.17.56,2.94,1.41,4.51.08.47-.39,1.29-1.45,1.69-1.98l.21-.05c.25-.06.47-.23.59-.46.18-.33,1.73-3.28.54-5.11-.29-.44-.82-.56-1.49-.7-.11-.02-.27-.06-.36-.08-.44-.43-1.74-2.4-2.79-4-1.29-1.97-2.72-4.15-3.94-5.71.89-.67,1.31-1.9,1.18-3.51,0-.04-.38-3.71-1.95-3.92-.43-.05-.96.16-1.18.78l-.02.05c-.33.93-.76,2.17-1.69,2.83-.29-.15-.58-.24-.86-.3.61-1.26.76-2.84-.44-4.43,0,0,0,0,0,0h0c-.26-.43-.61-.52-.86-.52-.01,0-.02,0-.03,0M113.65,98.15l5.92.11c0-.32.04-.64.12-.97.08-.3.19-.59.32-.85l-5.25-2.7s-1.86,1.65-1.12,4.4M117.81,125.24l1.62-6.41,1.93.49-.44,6.44c-1.01-.33-2.06-.52-3.11-.52M115.78,117.9l1.92.49-1.79,7.05c-.75.15-1.48.37-2.23.56-.62.16-1.24.35-1.85.54l3.95-8.63ZM92.65,116.34l4.09-7.5,12.22,6.62-4.09,7.5-12.22-6.62ZM99.46,108.7l5.77-.82,1.9,4.97-7.67-4.15ZM81.12,109.8c-.82-.71-1.72-1.38-2.69-2.01l.09-.17,5.04-1.79-1.47,4.54c-.6-.34-.98-.57-.98-.57M85.48,105.75l4.31,1.44-5.79,3.15,1.49-4.59ZM87.37,104.49l5.02-1.78-1,3.13-4.02-1.35ZM94.38,102.39l2.79.8-3.69,2.01.9-2.8ZM59.73,98.86c.39,0,.78-.01,1.17,0,6.37.07,12.43,1.87,17.07,5l-1.39,2.57-.29.1c-4.33-2.33-9.5-3.84-14.21-4.2-1.39-.11-2.79-.13-4.18-.08l1.84-3.39ZM96.71,101.18l11.89-4.21-9.18,4.99-2.71-.78ZM74.8,96.22l-1.46,2.67c-3.79-1.47-8.02-2.29-12.37-2.34-.02,0-.03,0-.05,0-.87,0-1.73.02-2.6.07l-1.3,2.41-.03.05v5.5c1.54-.09,3.1-.08,4.66.04,7.03.54,13.78,3.16,18.31,7.24.18.16.83.62.83.62,1.67,1.23,4.12,2.14,6.64,2.43-.48,3.99-1.44,5.54-3.79,8.03-.34-.13-.64-.28-1.04-.47-.82-.41-1.61-.87-2.38-1.37-3.16-2.59-6.79-4.51-10.68-5.75-3.07-.98-6.27-1.54-9.48-1.75-1.02-.07-2.05-.09-3.07-.09v1.84c.85,0,1.71.01,2.56.06.64.03,1.27.08,1.9.15.36.03.72.08,1.07.12.05,0,.09.01.13.02.02,0,.15.02.2.03.2.03.39.06.59.09,1.63.26,3.24.61,4.82,1.08.87.26,1.74.55,2.59.87.22.08.43.17.65.26.09.04.17.07.26.11.02,0,.04.02.05.02.08.03.16.07.24.11.44.19.87.39,1.3.6,1,.49,1.97,1.04,2.91,1.64,1.03.65,1.93,1.31,2.81,2.04,0,0,.02.02.03.02.05.04.1.08.15.12,2.36,1.52,4.97,2.77,7.82,2.9,1.15.05,2.3-.09,3.43-.3.6-.11,1.2-.25,1.79-.4.82-.21,1.62-.49,2.45-.65,1.41-.26,2.9.07,4.18.84.66.4,1.28.87,1.91,1.31.66.45,1.35.87,2.07,1.22,1.49.74,3.07,1.24,4.73,1.39,1.43.13,2.8-.13,4.16-.51.28-.08.56-.16.83-.25.71-.22,1.42-.4,2.14-.6.15-.04.3-.08.45-.12.06-.02.13-.03.19-.05.32-.09.65-.17.98-.23.12-.02.23-.04.35-.06.04,0,.1-.01.12-.02.1-.01.2-.02.3-.03.06,0,.12,0,.18,0,.29-.02.58-.02.87,0,.2.01.39.03.59.05.04,0,.09.01.11.02.11.02.22.04.33.06.48.1.96.23,1.42.4.04.02.08.03.13.05.3.12.6.23.91.36.15.06.29.12.44.18.05.02.11.05.16.07.03.01.13.05.15.06.03.01.06.02.08.04.54.23,1.07.46,1.62.68,1.16.46,2.37.83,3.6,1.06,1.05.2,2.05.23,3.09-.02.51-.12,1.02-.28,1.53-.42.32-.09.64-.17.96-.26.11-.03.23-.05.34-.08.08,0,.15-.01.23-.01.13,0,.25,0,.38.01.04,0,.08,0,.12.01-.03,0,.12.02.15.02.3.06.59.15.88.25.79-.21,1.57-.43,2.33-.65-.79-.76-1.86-1.25-2.94-1.4-.6-.09-1.18-.1-1.78.03-.64.14-1.27.34-1.9.51-.43.12-.86.23-1.3.31h0c-.05,0-.1,0-.15.01-.11,0-.22.01-.33.01-.23,0-.46-.02-.69-.04.14.01-.2-.03-.26-.04-.14-.03-.29-.05-.43-.08-.37-.08-.73-.17-1.09-.26-.6-.16-1.19-.35-1.77-.56-.29-.11-.58-.22-.87-.34-.06-.03-.12-.05-.18-.08-.03-.01-.05-.02-.06-.03-.02,0-.03-.01-.05-.02-.15-.06-.3-.13-.45-.19-.28-.12-.56-.23-.84-.35l1.1-16.92c-.51.13-1.02.2-1.52.2-.09,0-.18,0-.27-.01l-.49,7.8-1.6-.41,1.88-7.4c-.66-.06-1.24-.23-1.73-.44l-1.88,7.41-1.6-.41,3.28-7.09c-.78-.38-1.29-.84-1.48-1.03l-8.3,18.04c-.16.33-.29.6-.45.93,0,0,0,0,0,0-.18.03-.35.04-.57.05-.36.02-.72.02-1.08,0-.17,0-.3-.02-.42-.03-.2-.02-.37-.05-.61-.09-.79-.15-1.54-.39-2.29-.68-.03-.01-.06-.02-.08-.03-.02,0-.04-.02-.08-.03-.06-.03-.12-.05-.18-.08-.18-.08-.36-.17-.54-.26-.36-.18-.71-.37-1.06-.58-.69-.41-1.34-.89-2-1.35-1.4-.98-2.92-1.65-4.66-1.73-1.66-.07-3.2.55-4.78.92-.56.13-1.12.25-1.69.34-.13.02-.26.04-.39.06,0,0,0,0,0,0,0,0-.01,0-.03,0-.07,0-.14.02-.21.02-.27.03-.55.05-.83.06-.6.03-1.2,0-1.8-.06,0,0-.02,0-.02,0,0,0,0,0-.01,0-.09-.02-.19-.03-.28-.05,0,0,0,0,0,0,2.14-2.61,3.41-5.55,3.75-8.6.01,0,.06-.71.06-.71.02-.3.03-.6.03-.89h-.03v-.72c-.53.03-1.08.04-1.62,0-.96-.07-2.07-.42-3.12-.85l24.4-13.27-2.06,3.91c-.19.34-.06.78.28.96l.31.17c.86.47,1.18,1.55.71,2.41-.47.86-1.55,1.18-2.41.71-.86-.47-1.18-1.55-.71-2.41l-1.25-.68c-.47.86-.51,1.89-.12,2.79l-6.93,1.09-.48-.26c-.34-.19-.78-.06-.96.29h0s-4.77,8.75-4.77,8.75c-.19.34-.06.78.29.96h0s13.47,7.3,13.47,7.3c.34.19.78.06.97-.28l4.77-8.75c.19-.35.06-.78-.28-.97l-1.09-.6-1.93-5.6c1.76-.05,3.15-1.52,3.1-3.29-.03-1.01-.54-1.95-1.37-2.53l2.98-5.35.05-.03-.83-3.01-31.36,11.12.05-.09,1.15-2.12c-.36-.18-.57-.29-.57-.29-.44-.33-.9-.65-1.36-.96-1.36-.9-2.84-1.7-4.4-2.38l1.23-2.25,1.1-2.02,1.31-2.23-7.77-.49,4.27,3.77ZM157.15,95.8c1.45-1.37,3.44-2.16,5.58-2.16,4.29,0,7.78,3.2,7.78,7.13,0,.68-.11,1.35-.32,2-1.36-1.2-2.86-1.87-4.13-1.82-1.01-1.62-3.58-2.93-5.42-2.74-.59-.56-1.92-1.7-3.5-2.42M155.37,95.25s-.04,0-.06-.01v.1c-.21.23-.4.48-.58.73l.34.82c2.3.33,4.67,2.78,4.69,2.8l.35.36.49-.14c.46-.13,1.13,0,1.81.27l-2.55,4.71c-.33-.02-.67-.03-1-.03-.2,0-.4,0-.6,0-.48,0-.95,0-1.42.01-.55-.02-1.11-.02-1.66-.02l1.74,2.3c.94,0,2.46.02,3.22.05.09,0,.16,0,.23.01.85.06,1.7.15,2.53.26,2.04.29,4.03.76,5.91,1.38.44-.71.93-1.32,1.38-1.95-2.68-.95-5.55-1.59-8.51-1.88l2.18-4.02c.43.34.77.71.91,1.08l.24.82.8-.23c.78-.23,2.24.31,3.64,1.69,0,0,0,0,0,.01l.06.04c.21.21.42.44.63.7l.71.16c.87-1.36,1.33-2.91,1.33-4.5,0-4.85-4.24-8.79-9.45-8.79-2.89,0-5.57,1.21-7.35,3.27M126.7,95.46c.43.46.76,1.01.95,1.61l5.64-1.81s.15-2.48-2.32-3.9l-4.26,4.1ZM116.73,91.09l4.09,4.25c.45-.44,1-.77,1.61-.97l-1.8-5.61s-.03,0-.08,0c-.44,0-2.55.12-3.82,2.33M123.9,88.28l-.11,5.9c.31,0,.62.05.93.12.31.08.61.2.89.34l2.69-5.25s-1.15-1.29-3.12-1.29c-.4,0-.82.05-1.28.18M57,90.19v2.33c5.93-3.28,13.29-3.48,19.08-1.96,6.07,1.37,12.39,4.67,15.74,8.49l2.08-.73c-3.51-4.43-10.54-8.23-17.37-9.78-2.26-.59-4.73-.89-7.24-.89-4.18,0-8.5.83-12.3,2.54M149.65,82.42c-.29.14-.49.35-.66.56-.73.88-1.28,1.93-1.61,3.03.03.03.07.06.1.08.15.11.29.21.45.31.29.19.59.37.91.55.03-.14.04-.28.08-.42.26-.91.72-1.78,1.32-2.51.06-.07.09-.1.11-.12.05,0,.16,0,.23,0l3.79.19c.06,0,.17,0,.23.02.02.02.05.07.1.13.53.79.9,1.7,1.07,2.63.1.53.11,1.04.03,1.51l-.07.41c.58-.06,1.17-.17,1.71-.29l.02-.21c.06-.68-.01-1.3-.09-1.7-.21-1.16-.67-2.28-1.32-3.25-.15-.22-.33-.45-.61-.62-.36-.22-.74-.23-.99-.25l-3.79-.19c-.07,0-.15,0-.23,0-.23,0-.5.03-.77.16M148.25,77.15c-.13.1-.21.25-.22.4-.01.17.05.33.18.46l.23.24c.25.26.5.52.76.77.03.03.05.07.08.12-.15.13-.23.32-.24.51,0,.21.08.41.24.55.15.14.33.22.53.26.18.46.37.92.56,1.38.04.1.13.21.26.22.16.01.32.02.49.03l.51.03-.1-.37c-.01-.06-.03-.11-.05-.16-.18-.46-.37-.92-.56-1.39.18-.17.25-.4.19-.64-.07-.3-.29-.53-.59-.59-.1-.02-.14-.06-.19-.2-.04-.13-.09-.27-.19-.38-.39-.41-.8-.82-1.18-1.21-.1-.11-.24-.16-.39-.16-.12,0-.25.04-.35.12M68.65,78.74c-.29-.38-.42-.85-.35-1.32.12-.88.88-1.55,1.77-1.55.08,0,.16,0,.24.02.47.06.89.3,1.18.68.29.38.42.85.35,1.32-.06.47-.31.89-.69,1.19-.38.29-.84.41-1.31.35h0c-.47-.06-.89-.31-1.18-.69M67.21,73.95c-.99.76-1.62,1.86-1.78,3.09-.34,2.56,1.47,4.92,4.03,5.26.21.03.41.04.61.04,2.34,0,4.33-1.75,4.64-4.07h0c.16-1.24-.17-2.47-.93-3.46-.76-.99-1.86-1.63-3.1-1.79-.21-.03-.42-.04-.63-.04-1.03,0-2.02.34-2.85.98M123.96,70.29h1.84v-1.84h-1.84v1.84ZM143.68,70.29h1.84v-1.84h-1.84v1.84ZM123.96,67.21h1.84v-1.84h-1.84v1.84ZM143.68,67.21h1.84v-1.84h-1.84v1.84ZM170.48,51.91s-.02.03-.04.04c-4.12,4.87-5.79,9.7-4.94,14.35,1.33,7.37,8.45,11.52,8.94,11.79.13.08.88.52,1.97,1.02-.58-.94-1.04-1.97-1.34-3.06-1.46-.93-6.53-4.53-7.54-10.12-.67-3.71.57-7.63,3.69-11.66.03-.29.04-.58.04-.88,0-.7-.08-1.39-.23-2.04-.33.32-.53.53-.55.55M164.44,47.84c0,.18-.02.36-.03.56-.03.44-.07.93.03,1.43-1.57-.73-3.03-1.06-4.56-1.04-.35,0-.66.22-.79.55-.12.33-.03.7.23.93,1.46,1.31,2.63,2.48,2.89,4.08-1.09-.6-2.23-1.13-3.39-1.57-2.72-1.03-5.16-.23-7.39.79-.3.14-.5.44-.49.78s.2.64.51.77c.3.13.58.17.77.19,1.26.17,2.49.37,3.61.9.46.22.69.41.81.68.52,1.16,1.34,2.14,2.57,3.05-.34.2-.64.47-.89.83-.3.44-.67.59-1.39.54-.66-.17-1,.22-1.12.4-.14.21-.32.66.06,1.23v.02c.62,1.01,1.57,1.5,2.74,1.42-.42.2-.83.37-1.25.49-1.36.38-2.91.88-4.18,2.1-.25.24-.62.39-1.08.42-.02,0-.04,0-.06,0-.88-.09-1.18.39-1.28.68-.26.73.24,1.27.49,1.55.33.36.75.57,1.25.61.52.05,1-.03,1.41-.1,1.5-.28,2.86-.29,4.16,0,.31.07.61.11.92.12-.13.25-.23.51-.31.78-.23.75-.51,1.11-1.02,1.27-.62.19-.76.64-.79.83-.03.19-.05.67.5,1.08.79.59,1.59.23,1.98.05.6-.27,1.1-.63,1.59-.98.12-.09.24-.17.36-.26l.09-.06c.08-.06.21-.15.24-.16.33-.02.64-.01.95.02-.61.86-1.3,1.68-2.1,2.47-.26.26-.53.51-.81.77-.62.57-1.25,1.16-1.8,1.86-.88,1.14-1.33,2.41-1.31,3.77,0,.25.12.49.31.64.19.16.44.22.69.18.39-.07.65-.25.82-.37l.15-.1c.93-.62,1.81-1.22,2.79-1.58.99-.37,2.05-.78,3.07-1.27.11-.05.21-.1.32-.15-.4.85-.6,1.82-.41,2.99.05.29.24.53.51.64.27.11.57.08.81-.09,1.33-.93,2.56-1.67,3.86-2.12-.73,1.22-1.4,2.51-1.59,4.06-.23,1.94.98,5.55,1.91,6.36.24.21.59.26.88.13.3-.13.49-.41.51-.73.05-.88.13-1.72.25-2.56.19-1.33.78-2.11,1.91-2.53.75-.28,1.55-.61,2.21-1.22l.22-.2c.32-.29.69-.63,1.03-.99.18-.17.33-.32.45-.46-.08-.68-.25-1.34-.48-1.97-.17.18-.31.34-.4.44-.38.44-1.26,1.28-1.74,1.72l-.23.21c-.44.41-1.03.65-1.66.88-1.58.59-2.56,1.74-2.92,3.43-.22-.83-.36-1.68-.28-2.31.18-1.49.97-2.76,1.8-4.1.2-.33.41-.66.61-1,.16-.28.16-.62-.02-.89s-.48-.42-.8-.38c-1.93.22-3.59.99-5.1,1.92.28-.97.99-1.79,1.77-2.68.11-.12.21-.24.32-.37.27-.31.28-.76.02-1.08-.25-.32-.7-.41-1.06-.22-1.17.62-2.3,1.19-3.44,1.74-.96.46-1.97.85-2.93,1.21-.76.29-1.46.68-2.11,1.09.15-.35.36-.68.61-1.01.46-.6,1.02-1.11,1.61-1.66.28-.26.57-.53.86-.81,1.2-1.19,2.19-2.43,3.02-3.8.13-.22.16-.49.07-.73-.09-.24-.28-.43-.53-.51-.86-.28-1.73-.39-2.69-.34-.5.03-.86.28-1.13.47l-.08.05s-.05.04-.08.06c.02-.06.04-.12.05-.17.18-.59.51-1.07,1-1.45.05-.04.11-.09.15-.15.34-.43.22-.84.16-.99-.07-.15-.28-.51-.82-.56-.1,0-.21,0-.31.03-.67.19-1.36.22-2.04.07-1.36-.29-2.76-.32-4.27-.1.07-.06.14-.11.2-.18.88-.86,1.98-1.28,3.46-1.69.89-.25,1.69-.66,2.46-1.07.26-.14.52-.27.79-.4.6-.3.7-.73.7-.97,0-.29-.12-.7-.7-1.01-.78-.41-1.59-.43-2.36-.38.37-.2.72-.5,1.03-.95.24-.36.71-.52,1.45-.75l.09-.03c.31-.1.54-.37.58-.69.05-.32-.1-.65-.38-.82-.14-.09-.26-.17-.39-.25-.25-.16-.48-.31-.7-.46-1.08-.78-1.78-1.57-2.2-2.51-.38-.84-1.11-1.27-1.63-1.51-.51-.24-1.03-.42-1.56-.57,1.08-.21,2.13-.17,3.22.25,1.41.53,2.77,1.2,4.05,1.98h0c.11.1.45.37.94.27.36-.07.63-.36.68-.72.28-2.14-.47-3.7-1.63-5.07,1.09.32,2.23.87,3.49,1.69.34.22.78.17,1.06-.11.28-.28.33-.72.11-1.06-.41-.63-.43-.69-.54-1-.05-.15-.12-.33-.23-.61-.13-.34-.1-.74-.07-1.2.02-.21.03-.43.03-.66,0-.77.33-1.61.73-2.43-.39-.33-.84-.7-1.34-1.11-.57,1.11-1.07,2.3-1.09,3.52M126.38,39.8c-.83.16-1.71.28-2.63.36l-.92.07.15,1.83.92-.07c.99-.08,1.94-.21,2.83-.39l.9-.18-.35-1.8-.9.18ZM115.41,41.31l.89.21c.97.23,1.93.39,2.85.47l.91.08.16-1.83-.91-.08c-.83-.07-1.7-.22-2.58-.43l-.89-.21-.43,1.79ZM147.73,40.37h1.84v-1.84h-1.84v1.84ZM96.93,40.52h1.42s0-2.68,0-2.68c-.47-.36-.95-.72-1.42-1.08v3.76ZM108.47,38.26l.8.45c.82.46,1.67.89,2.54,1.27l.84.37.74-1.68-.84-.37c-.82-.36-1.62-.76-2.39-1.19l-.8-.45-.9,1.6ZM93.35,40.52h1.42s0-5.34,0-5.34c-.16-.11-.33-.23-.5-.35h-.92s0,5.69,0,5.69ZM89.79,40.51h1.42s0-5.69,0-5.69h-1.42s0,5.69,0,5.69ZM86.23,40.51h1.42s0-5.69,0-5.69h-1.42s0,5.69,0,5.69ZM136.68,34.59h1.84v-1.84h-1.84v1.84ZM102.33,34.03l.75.53c.53.38.88.62.89.63l2.15,1.47,1.04-1.52-2.13-1.46s-.35-.24-.87-.62l-.75-.53-1.07,1.49ZM79.11,45.47c0-.61.5-1.11,1.11-1.11s1.11.5,1.11,1.11-.5,1.11-1.11,1.11-1.11-.5-1.11-1.11M79.42,36.13v-.04c0-.28.22-.51.48-.51h3.13v3.47h-3.86l.24-2.92ZM83.81,32.16c-.43,0-.77.35-.77.77v1.11h-3.13c-1.11,0-2.02.9-2.03,2.01l-.29,3.44-.74.74c-.51.51-.54,1.33-.54,1.49v3.76c0,.43.35.77.77.77h.6c.34,1.1,1.36,1.88,2.54,1.88,1.46,0,2.65-1.19,2.65-2.65s-1.19-2.65-2.65-2.65c-1.01,0-1.92.59-2.36,1.45v-1.16h.31c.43,0,.77-.35.77-.77s-.35-.77-.77-.77h-.3c.02-.1.05-.21.07-.25l.71-.71h4.38v4.87c0,.43.35.77.77.77h.95c.78-.55,1.59-1.06,2.44-1.52.01,0,.02-.01.04-.02h-2.65v-1.59h6.17c1.81-.67,3.74-1.19,5.79-1.55h-11.96v-7.86h8.05c-.79-.52-1.62-1.04-2.47-1.54h-6.35ZM111.49,30.66h4.96v-1.84h-4.96v1.84ZM126.78,28.78h-5.82v1.06h1.06v4.87c.35-.02.7-.04,1.06-.08v-4.78h3.18v4.21c.35-.09.7-.18,1.06-.29v-3.93h1.06v-1.06h-1.59ZM96.39,29.67l.74.54c.34.25.66.49.96.72.28.22.7.53,1.25.93l.74.54,1.09-1.48-.74-.54c-.54-.39-.94-.7-1.22-.91-.31-.24-.64-.49-.99-.75l-.74-.54-1.09,1.48ZM71.15,49.58c-.54-.6-.88-1.29-.97-2.11.81.18,1.45.59,1.99,1.19l.09.1-1.02.92-.09-.1ZM59.21,50.3l3.17-3.02v6.17l-3.17-3.14ZM58.82,42.98l3.07,2.29-3.07,2.93v-5.22ZM59.38,41.16l3-2.44v4.67l-3-2.24ZM58.82,34.35l3.04,2.48-3.04,2.47v-4.95ZM64.18,32.11l2.55,1.85-2.55,1.37v-3.22ZM66,31.21l5.39-.06c-.25.22-.5.45-.73.68l-2.18,1.18-2.48-1.8ZM59.26,32.4l3.12-3.07v5.62l-3.12-2.54ZM58.82,27.68h2.68l-2.68,2.64v-2.64ZM57.92,25.89l-.9.9v33.23l1.1-.79.7-.41v-6.38l3.83,3.79,1.53-.64v-18.22l3.95-2.13c-.45.88-.79,1.81-1,2.77-1.1,5.03,1.54,9.23,1.66,9.41l.03-.02c.06,1.14.53,2.23,1.31,3.1l.54.6c.27.3.65.32.96.04l.51-.46.9,1c.27.3.65.32.96.04.56-.5,1.42-.47,1.92.08.49.55.44,1.41-.12,1.92-.56.5-1.42.47-1.92-.08-.27-.3-.65-.32-.96-.04-.31.27-.33.66-.06.96.99,1.1,2.71,1.18,3.84.17,1.12-1.01,1.23-2.73.25-3.83-.83-.93-2.19-1.12-3.27-.56l-.51-.57.51-.46c.31-.27.33-.66.06-.96l-.54-.6c-.69-.77-1.55-1.29-2.53-1.53l.07-.05c-.21-.34-4.87-7.91,3-13.96l2.26-1.22-.44-1.69-11.38.13v-2.65l-.9-.9h-5.36ZM111.49,27.59h4.96v-1.84h-4.96v1.84ZM90.17,26.09l.83.4c.79.38,1.59.81,2.37,1.26l.79.46.92-1.59-.79-.46c-.82-.48-1.66-.92-2.49-1.32l-.83-.4-.8,1.65ZM95.87,88.57c.06-.05.1-.08.11-.09.44-.37.98-.75,1.6-1.12,4.82-2.97,16.14-6.56,22.45-6.32.99.51,1.93,1.06,2.83,1.67-6.61-.29-17.62,2.66-22.86,5.83-.53.32-1,.64-1.41.95-.02.01-.52.39-.84.64-.59-.52-1.22-1.04-1.87-1.56M91.95,85.83c.41-.36.89-.73,1.44-1.09,4.4-2.92,12.92-5.76,18.88-6.45.22.05.45.1.67.15.94.22,1.85.48,2.75.78.07.02.13.05.2.07-6.55.61-15.36,3.65-19.9,6.62-.5.33-.95.66-1.34.98-.06.05-.28.23-.49.41-.72-.51-1.46-1-2.21-1.47M85.02,82.37c.82-.53,1.68-1.02,2.58-1.47,3.02-1.51,6.43-2.57,10.02-3.08.83-.12,1.68-.21,2.53-.26.07,0,.14,0,.23-.01.77-.03,2.29-.05,3.22-.05.48,0,.8,0,.8,0,.41,0,.81,0,1.22,0-5.25,1.39-10.73,3.62-13.94,5.92-.53.38-.99.75-1.39,1.13-.06.06-.13.12-.19.19-1.69-.94-3.41-1.75-5.08-2.36M91.53,68.07h1.64c1.28,0,2.41.82,2.81,2.04v.19h-1.58c-1.35,0-2.54-.93-2.87-2.23M97.81,69.92c.46-1.12,1.53-1.85,2.74-1.85h1.64c-.33,1.3-1.52,2.23-2.87,2.23h-1.51v-.38ZM133.1,68.43c0-.92.74-1.68,1.67-1.69.92,0,1.68.74,1.69,1.67l.02,2.93c-.36,0-.72,0-1.08.02-.75-.02-1.51-.02-2.27,0l-.02-2.93ZM114.47,76.46c-1.4-.38-2.85-.68-4.32-.89-.92-.13-1.85-.23-2.79-.3-.56-.04-1.12-.06-1.69-.07.29-.36.55-.73.8-1.1.47-.72.87-1.46,1.19-2.21.61-1.43.94-2.92.97-4.44.02-.95-.07-1.89-.28-2.82,1.61-.13,3.24-.17,4.88-.13.37,0,.75.02,1.12.04-.25.92-.39,1.86-.41,2.81-.03,1.22.13,2.42.47,3.6.21.74.5,1.46.85,2.17.06.13.13.26.2.38.41.76.9,1.51,1.46,2.24-.5.28-.99.57-1.46.87-.05.03-.1.06-.14.09-.28-.08-.56-.16-.85-.24M122.98,63.94l3.96-.02.07,8.13c-.11.02-.23.04-.34.07-1.35.28-2.57.62-3.63.96l-.06-9.13ZM142.58,71.84l-.07-8.01,3.96-.02.06,8.9c-1.32-.36-2.66-.65-3.96-.87M94.79,64.45h-.04c-.28-.09-.5-.29-.61-.56-.11-.28-.09-.58.05-.84l.79-1.37c.32.12.66.21,1,.27v1.58c0,.29-.14.57-.37.75-.17.13-.37.2-.57.2-.08,0-.16-.01-.24-.03M98.04,64.29c-.23-.18-.37-.45-.37-.75v-1.58c.34-.06.68-.15,1-.27l.79,1.37c.15.26.17.56.05.83-.11.27-.34.47-.61.55h-.04c-.08.03-.16.04-.24.04-.21,0-.41-.07-.58-.2M91.25,62.42l-.03-.03c-.21-.21-.3-.49-.26-.79.04-.29.21-.55.46-.69l1.37-.79c.22.27.46.51.73.73l-.79,1.37c-.15.26-.4.42-.69.46-.04,0-.08,0-.13,0-.25,0-.48-.1-.66-.27M101.61,62.68c-.29-.04-.55-.21-.69-.46l-.79-1.37c.27-.22.51-.46.73-.73l1.37.79c.25.15.42.4.46.69.04.29-.06.58-.26.79l-.03.03c-.18.18-.41.27-.66.27-.04,0-.08,0-.13,0M128.83,62.01l5.87-3.82,5.91,3.75.08,9.62c-.55-.06-1.08-.11-1.61-.15-.49-.03-.99-.05-1.48-.07l-.02-2.95c0-1.54-1.27-2.79-2.81-2.78-1.54,0-2.79,1.27-2.78,2.81l.02,2.97c-.1,0-.2,0-.3.02-.94.06-1.87.16-2.8.3l-.08-9.71ZM89.74,59.5c-.27-.11-.47-.34-.55-.61v-.04c-.09-.29-.03-.58.16-.82.18-.23.45-.37.75-.37h1.58c.06.34.15.68.27,1l-1.36.79h0c-.15.09-.31.13-.47.13-.12,0-.25-.02-.36-.07M103.09,59.46l-1.38-.8c.12-.32.21-.66.27-1h1.58c.29,0,.57.13.75.37.18.23.24.53.17.82v.04c-.09.28-.29.5-.56.61-.12.05-.24.07-.36.07-.16,0-.31-.04-.46-.12M101.7,54.97l1.34-.77h.02l.02-.02c.25-.14.55-.16.82-.05.27.11.47.34.55.61v.04c.09.29.03.59-.15.82-.18.23-.45.37-.75.37h-1.58c-.06-.34-.15-.68-.27-1M89.35,55.61c-.18-.24-.24-.54-.16-.82v-.04c.09-.28.28-.5.55-.61.27-.11.58-.09.84.06l1.36.79c-.12.32-.21.66-.27,1h-1.58c-.29,0-.57-.13-.75-.37M93.3,56.82c0-1.95,1.58-3.53,3.53-3.53s3.53,1.58,3.53,3.53-1.58,3.53-3.53,3.53-3.53-1.58-3.53-3.53M135.62,52.64l3.96-.02v1.04s-3.96.02-3.96.02v-1.03ZM100.13,52.78l.79-1.37c.15-.26.4-.42.69-.46.29-.04.58.06.79.26l.03.03c.21.21.3.49.26.78-.04.29-.21.55-.46.69l-1.37.79c-.22-.27-.46-.51-.73-.73M91.42,52.73c-.26-.15-.42-.4-.46-.69-.04-.29.06-.58.26-.79l.03-.03c.21-.21.49-.3.79-.26.29.04.55.21.69.46l.79,1.37c-.27.22-.51.46-.73.73l-1.37-.79ZM97.67,51.67v-1.58c0-.29.13-.56.36-.74.24-.18.54-.24.82-.16h.04c.28.09.5.29.61.55.11.27.09.57-.06.83l-.79,1.37c-.32-.12-.66-.21-1-.27M94.19,50.57c-.15-.25-.17-.56-.05-.83.11-.27.34-.47.61-.54h.04c.29-.09.59-.03.82.15.23.18.36.45.36.74v1.58c-.34.06-.68.15-1,.27l-.79-1.37ZM152.13,37.3c.24-.13.39-.37.39-.64v-1.48h.73v3.12c0,.23.11.45.3.59l1.39,1.01v5.76c-2.98-.34-5.9-.96-8.65-1.6-1.24-.29-2.56-.59-3.93-.86v-3.3l6.29-4.55,2.71,1.9c.13.09.27.14.42.14.11,0,.23-.03.33-.08M91.56,21.76h-.02c3.89,1.78,7.32,4.39,10.64,6.93,4.14,3.16,8.42,6.43,13.6,8.01,4.17,1.28,8.96.96,14.25-.92v4.95l1.45-.53v-5.9l6.29-4.55,2.71,1.91c.22.16.51.18.75.06.24-.13.39-.37.39-.64v-1.48h.73v3.13c0,.23.11.45.3.59l1.39,1.01v2.58l-2.83,2.05c-.19.13-.3.35-.3.58v3.4c-3.4-.59-7.05-.89-10.55-.18-.08,0-.16,0-.25.03-1.19.32-2.41.65-3.56,1.11-5.18,1.52-10.73.89-15.64-1.36-5.15-2.35-9.41-6.26-13.97-9.54-5.1-3.66-10.65-7.06-17.06-7.26-4.42-.13-8.85.15-13.27.16v1.79c4.12-.01,8.24-.22,12.36-.18,2.43.02,4.77.3,7.05,1.2,3.61,1.44,7.05,3.69,10.18,5.95,3.62,2.61,7.05,5.6,10.9,7.89-2.81-.15-5.62-.13-8.42.21-3.76.46-7.45,1.46-10.79,3.28-1.78.97-3.44,2.18-4.89,3.6l1.3,1.3c.3-.29.6-.58.92-.85.15-.13.31-.26.47-.39.09-.07.17-.14.26-.21,0,0,.03-.03.06-.04.03-.02.12-.09.13-.1.69-.52,1.41-.99,2.16-1.42.76-.44,1.55-.84,2.35-1.19.09-.04.18-.08.28-.12.02,0,.13-.05.16-.06.22-.09.44-.18.66-.26.4-.15.8-.29,1.21-.42,3.72-1.21,7.51-1.59,11.41-1.56,2.33.02,4.65.18,6.97.42.05,0,.11,0,.16,0,3.59,1.41,7.46,2.05,11.26,1.72-.23.26-.45.52-.69.77-.17.18-.35.36-.55.52,0,0-.04.03-.06.04-.04.03-.09.06-.13.09-.12.08-.24.14-.37.21,0,0-.06.03-.1.05-.03.01-.1.04-.11.04-.12.04-.23.08-.35.12-.26.08-.52.14-.78.19-1.01.2-2.02.31-3.01.61-1,.3-1.99.71-2.89,1.24-1.93,1.14-3.36,2.83-4.23,4.89-.95,2.27-1.16,4.73-1.28,7.17-.43.02-.71.04-.71.04-.72.07-1.43.15-2.13.24,0,0,.72,2.43.74,2.53.16.74.23,1.48.21,2.23-.03,1.49-.42,2.95-1.14,4.34-.4.79-.91,1.55-1.52,2.29-.33.39-.68.78-1.07,1.16-.12,0-.23,0-.35,0-.2,0-.4,0-.61,0-.55.01-1.1.03-1.66.07-.35.02-.69.06-1.04.09-.38.04-.76.08-1.14.13v-3.88h2.15c.31,0,1.36-.12,1.8-.49.26-.22.64-.61.65-.62.86-.84,1.33-1.96,1.33-3.16,0-.4-.33-.73-.73-.73h-2.46c-1,0-1.96.34-2.74.96v-1.53c.66.21,1.39.16,2.03-.16.64-.32,1.1-.88,1.31-1.57.89.2,1.8-.06,2.45-.71.65-.65.91-1.56.71-2.45.87-.27,1.53-.95,1.77-1.84.24-.89.01-1.82-.61-2.49.62-.67.85-1.6.61-2.49-.24-.89-.9-1.57-1.77-1.84.2-.89-.06-1.8-.71-2.45-.65-.65-1.56-.91-2.45-.71-.27-.87-.95-1.52-1.84-1.76-.89-.24-1.82-.01-2.49.6-.67-.62-1.59-.85-2.49-.61-.89.24-1.57.89-1.84,1.76-.89-.2-1.8.06-2.45.71-.65.65-.91,1.56-.71,2.45-.87.27-1.53.95-1.77,1.84-.24.9-.01,1.82.61,2.49-.62.67-.85,1.59-.61,2.49.24.89.9,1.57,1.77,1.84-.2.89.06,1.8.71,2.45.65.65,1.56.91,2.45.71.22.72.71,1.29,1.39,1.61.66.31,1.43.34,2.09.08v1.63c-.79-.66-1.78-1.02-2.81-1.02h-2.46c-.4,0-.73.33-.73.73,0,1.2.47,2.32,1.32,3.15.03.04.68.87,1.68,1.06.64.12,2.33.09,3,.07v4.15c-3.73.66-7.26,1.89-10.37,3.58.01-.15.02-.24.02-.25v-.08c0-.09,0-.32,0-.65.35-.12.73-.25,1.1-.39.99-.38,1.98-.83,2.33-.99.47-.13.88-.46,1.14-.92l.02-.03c.22-.42.29-.93.2-1.44l-.02-.08s-.04-.21-.09-.46v-.05c-.03-.08-.05-.17-.07-.27-.05-.23-.1-.51-.19-.78-.07-.3-.16-.57-.24-.79-.03-.09-.06-.17-.08-.25l-.15-.49-.02-.06c-.14-.38-.37-.7-.67-.96-.08-.07-.17-.14-.26-.2l-.03-.02c-.06-.04-.13-.07-.19-.1-.01,0-.02-.01-.03-.02-.4-.18-.83-.22-1.23-.12-.37.03-1.44.14-2.49.32-.37.06-.77.14-1.15.22-.07-.12-.13-.23-.2-.33-.07-.1-.12-.18-.16-.23-.03-.05-.05-.08-.05-.09l-.05-.07c-.05-.07-.19-.26-.38-.52.21-.3.44-.63.66-.97.58-.89,1.12-1.84,1.3-2.16.31-.39.44-.89.38-1.42v-.04c-.08-.47-.32-.93-.69-1.28l-.06-.06s-.16-.14-.34-.31l-.04-.04c-.06-.05-.13-.11-.2-.18-.18-.17-.41-.38-.66-.56l-1.24-.93-.05-.04c-.51-.34-1.14-.47-1.72-.35-.43.09-.81.31-1.07.63-.28.24-1.08.96-1.83,1.73-.26.27-.54.56-.81.85-.12-.06-.24-.11-.36-.15-.17-.06-.29-.11-.33-.12l-.39-.14c-.07-.03-.14-.05-.21-.08l-.14-.05c0-.35-.01-.76-.04-1.16-.02-.56-.07-1.18-.15-1.84l-.08-.66c.02-.4-.1-.8-.35-1.15-.34-.47-.88-.8-1.5-.9-.13-.03-.35-.06-.62-.08h-.15c-.27-.03-.59-.05-.91-.07-.48-.03-.86-.05-1.2-.03h-.47c-.62.03-1.21.29-1.61.73-.29.32-.46.71-.49,1.11-.04.15-.09.39-.15.69-.11.55-.23,1.2-.31,1.8-.06.42-.11.82-.15,1.17-.03,0-.06.01-.09.02-.08.02-.14.03-.21.05l-.36.08c-.12.02-.31.07-.55.16-.08.03-.17.06-.27.09-.2-.27-.45-.59-.72-.92-.66-.83-1.4-1.63-1.66-1.9-.24-.36-.6-.62-1.03-.75-.58-.18-1.23-.09-1.76.23l-1.33.79-1.32.95c-.16.11-.3.24-.42.39v2.91c.21.47.51,1.12.85,1.75.17.33.37.69.56,1.03-.07.08-.13.14-.18.2-.14.15-.25.29-.34.42h0s-.25.34-.25.34c-.03.05-.08.1-.12.16v.02s-.04.04-.06.05c-.14-.04-.29-.09-.45-.13v2.66c.24.08.44.14.55.18l.98.34.62-1.06c.11-.18.23-.34.35-.49.07-.09.14-.18.19-.25l.23-.3s.03-.03.04-.05c0,0,.03-.05.1-.12l.02-.02c.16-.18.4-.44.67-.74l.83-.83-.46-.77-.11-.18s-.06-.1-.1-.17c-.27-.45-.56-.99-.81-1.46-.4-.77-.77-1.59-.94-1.98l.94-.68,1-.59c.3.33.9.99,1.44,1.66.45.56.83,1.06,1.01,1.32l.03.05c.05.07.1.14.14.19l.56.8.91-.34s.09-.03.15-.06l.04-.02c.39-.13.72-.24.95-.32h.03c.09-.04.14-.05.16-.06l.41-.1c.08-.02.17-.04.27-.06h.03c.17-.05.38-.1.58-.13l1.24-.16.08-1.03c.01-.16.08-1.03.22-1.96.08-.56.19-1.17.29-1.68.04-.2.07-.36.1-.49h.25c.23-.02.6,0,.91.02.33.02.66.04.93.06h.1c.05.01.1.02.14.02l.06.52c.07.6.11,1.16.13,1.67.04.81.04,1.59.03,1.99v.99s1.32.35,1.32.35c.11.03.22.06.31.08l.19.07c.06.02.12.04.2.07l.35.12s.17.07.37.14c.1.04.29.13.45.21.12.06.24.12.38.18.05.02.1.05.14.07l.9.46.7-.82c.05-.06.11-.13.17-.2.34-.39.75-.83,1.12-1.21.61-.63,1.28-1.23,1.59-1.51l.99.74c.15.11.3.25.46.4.08.08.16.15.24.21.05.04.09.08.13.12-.23.41-.67,1.17-1.14,1.88-.41.63-.84,1.23-1.14,1.62l-.6.8.65.78s.06.08.1.11l.02.02c.33.45.56.76.73.98h0s0,.01.02.03c0,0,0,0,0,0l.02.02s.02.03.03.04c.09.16.29.5.56.96.02.04.04.08.07.13.01.02.02.04.03.07.01.03.03.05.04.08l.45.9.99-.23c.38-.09,1.15-.26,1.95-.39.85-.15,1.74-.25,2.17-.29.02.05.03.1.05.16l.3.95c.08.35.16.7.23.96.01.06.02.11.03.16-.43.19-1.23.55-2.03.85-.7.27-1.4.5-1.87.64l-.96.3.07,1.01s0,.1.01.14v.02c0,.56,0,.94.01,1.22h0s-.06.55-.13,1.36v.02s-.03.1-.03.15l-.1.61c-.68.48-1.34.98-1.96,1.51,0,0-1.77,1.09-3.79,1.91-5.33-.96-12.4-.94-18.16.98l.13-.09c-.12-.2-.31-.53-.55-.94v-.02c-.03-.06-.06-.12-.09-.17l-.46-.86-.95.22v4.97c6.47-3.37,16.09-3.07,21.81-1.62h0c6.34,1.44,13.97,6.25,17.26,10.37l2.05-.72s-.04-.05-.06-.08c-3.14-4.29-10.54-9.22-17.23-11.19.38-.23,1.05-.62,1.18-.74.3-.27.61-.52.93-.78,6.42,1.87,14.27,7.59,17.12,11.81.01.02.02.04.03.05l2.01-.7c-.11-.17-.22-.34-.33-.51-.64-.95-1.5-1.96-2.52-2.98.51-.36,1.78-1.24,2.15-1.45,4.9-2.84,17.89-6.77,24.47-5.07.18.12.33.23.33.23,1.81,1.3,4.51,2.24,7.22,2.42.15.01.3.02.45.02.42.01.85,0,1.26-.02-.08.16,3.03-.43,3.96-.88.11-.05.22-.09.32-.14,1.16-.46,2.34-.56,3.75-.24.55.13,1.11.51,1.62.9.06.05.12.09.18.14.24.19.46.37.67.53,2.18,1.64,4.58,3.29,7.41,3.58,1.7.18,3.58.01,5.29-.36.3-.07.59-.13.88-.21.99-.27,1.82-.89,2.86-1.02,1.52-.18,3.65-.47,5.33.11-.38-.78-.76-1.58-.83-2.41-1.26-.05-.07,0-1.47-.08-2.13-.13-3.62.05-5.93.96,0,0-.39.13-.96.28-.98.26-2.52.6-3.7.56-.08,0-.17,0-.25-.01-2.07-.18-4.55-1.16-6.45-2.42-.15-.1-.3-.21-.44-.31-.67-.5-1.31-1.07-2.02-1.54-.38-.25-.77-.47-1.2-.62-2-.74-4.09-.63-5.81.13-1.37.6-3.05.81-4.76.75-3.26-.11-7.08-2.8-7.08-2.8-2.37-2.01-5.2-3.66-8.31-4.89-.01,0-.03-.01-.04-.02,0,0,.02,0,.03-.02,2.86-1.6,6.13-2.77,9.61-3.42.62-.12,1.25-.22,1.88-.3.73-.1,1.46-.17,2.21-.22.94-.06,4.26-.07,4.26-.07.93-.01,1.87,0,2.81.07,6.2.42,12.01,2.47,16.42,5.71.22-.78.8-1.62,1.31-2.14-2.28-1.66-5.17-3.01-8.21-4l-.07-10.42c0-.25-.1-.49-.28-.67-.18-.18-.41-.28-.67-.27l-4.91.03v-.52c0-.32-.17-.62-.44-.79l-6.42-4.08v-.98s4.91-.03,4.91-.03c.25,0,.49-.1.67-.28.18-.18.27-.42.27-.67l-.02-2.93c0-.25-.1-.49-.28-.67-.18-.18-.42-.27-.67-.27h0l-5.86.03c-.25,0-.49.1-.67.28-.18.18-.27.42-.27.67l.03,4.85-6.38,4.15c-.27.18-.43.48-.43.8v.52s-4.91.03-4.91.03c-.25,0-.49.1-.67.28-.18.18-.28.42-.27.67l.07,10.73c-.11.04-.21.08-.31.12-.5.2-.98.41-1.47.62-.13.06-.25.12-.38.18-.72-.88-1.3-1.78-1.75-2.71-.34-.72-.6-1.45-.77-2.18-.18-.78-.26-1.57-.25-2.36.02-.81.14-1.61.37-2.4.03-.1.78-2.53.78-2.53-.98-.1-1.97-.17-2.96-.22,0-.4,0-.8,0-1.2.01-.31.03-.61.06-.92.01-.14.03-.28.05-.43,0-.04.02-.14.02-.16.01-.08.03-.17.04-.26.05-.3.12-.6.21-.89.04-.13.08-.25.13-.38,0-.02.05-.11.06-.14.03-.05.05-.11.08-.16.14-.28.32-.54.49-.8.05-.08.1-.15.16-.23,0,0,.07-.09.1-.13.1-.13.2-.25.31-.37.2-.23.41-.45.63-.65.1-.09.2-.18.3-.26.04-.03.08-.07.13-.1.02-.02.1-.08.11-.08.22-.16.45-.31.69-.44.1-.06.21-.12.32-.17.06-.03.13-.06.19-.09.03-.01.14-.06.18-.08.44-.17.89-.31,1.36-.39.09-.02.2-.05.3-.05.02,0,.03,0,.04,0,.06,0,.13-.01.19-.02.24-.02.47-.03.71-.03.23,0,.46,0,.69.03.11,0,.23.02.34.03.02,0,.12.03.14.02.02,0,.04,0,.07.01.56.09,1.12.23,1.66.41.13.04.25.08.37.13.04.01.12.03.15.06-.04-.01-.07-.03-.11-.05.03.02.07.03.1.05.16.08.31.16.47.24.31.18.62.34.96.45,1.81.58,3.74-.1,5.53-.42.33-.06.67-.12,1-.17v-1.87c-.26.05-.52.09-.78.14-.74.13-1.46.28-2.19.45-.22.05-.44.09-.66.13-.08.01-.15.02-.22.04-.02,0-.09.01-.13.02-.14.02-.29.03-.43.04-.3.02-.6.04-.9.02-.08,0-.15-.01-.23-.02h0s0,0-.01,0c-.1-.02-.21-.04-.32-.07-.09-.02-.17-.05-.26-.08,0,0,0,0,0,0-.13-.07-.26-.14-.39-.21-.4-.23-.82-.42-1.25-.58-1.06-.38-2.22-.6-3.35-.63-2.35-.06-4.63.82-6.3,2.48-1.09,1.08-1.97,2.42-2.32,3.92-.28,1.24-.35,2.53-.33,3.81-.77,0-1.68.03-2.53.07.1-2,.26-3.93.93-5.86.18-.52.3-.81.57-1.31.12-.23.25-.46.39-.68.06-.1.13-.19.19-.28.04-.05.08-.11.11-.16.01-.02.05-.07.07-.1.3-.37.62-.71.98-1.03.09-.08.18-.16.27-.23.05-.04.09-.08.14-.11-.03.03-.12.09.03-.02.19-.14.39-.28.59-.41.41-.26.83-.49,1.27-.7.1-.05.2-.09.3-.13.02,0,.17-.07.19-.08.24-.09.48-.18.73-.26.95-.3,1.92-.45,2.9-.62,1.1-.19,2.14-.52,3.02-1.22.78-.63,1.34-1.49,2.1-2.14.14-.12.28-.23.53-.39.23-.15.46-.29.7-.42.24-.13.48-.25.73-.36.04-.02.08-.04.13-.05.02-.01.03-.01.03-.01,0,0,.02,0,.05-.02.14-.06.28-.11.43-.17.91-.34,1.84-.6,2.78-.86l.3-.07c1.58-.34,3.3-.48,5.14-.42,3.5.12,6.97.93,10.33,1.72,3.03.71,6.16,1.44,9.33,1.67.3.02.6.03.89.03,3.3,0,6.77-1.29,9.16-3.38-.45-.36-.93-.76-1.46-1.18-2.08,1.67-5.14,2.81-7.53,2.76v-6.26c0-.23-.11-.45-.3-.59l-1.39-1.01v-3.48c0-.4-.32-.72-.72-.72h-2.17c-.4,0-.72.32-.72.72v.81l-2-1.4c-.25-.18-.59-.18-.85,0l-2.73,1.98v-1.9c0-.23-.11-.45-.3-.59l-1.39-1.01v-3.48c0-.4-.32-.72-.72-.72h-2.17c-.4,0-.72.33-.72.72v.81l-2-1.4c-.25-.18-.59-.18-.85,0l-7.01,5.07c-.16.11-.26.29-.29.47-5.15,1.92-9.53,2.32-13.39,1.22-4.85-1.38-9.02-4.33-12.81-7.3l-.16-.13c-3.44-2.7-6.7-5.26-10.56-7.12-.47.51-1,.88-1.56,1.26M123.71,17.49c-.14,0-.25.11-.25.25v1.67h-1.67c-.14,0-.25.11-.25.25v1.92c0,.14.11.25.25.25h1.67v1.67c0,.14.11.25.25.25h1.92c.14,0,.25-.11.25-.25v-1.67h1.67c.14,0,.25-.11.25-.25v-1.92c0-.14-.11-.25-.25-.25h-1.67v-1.67c0-.14-.11-.25-.25-.25h-1.92ZM102.08,19.13h1.84v-1.84h-1.84v1.84ZM108.97,19.13h1.84v-1.84h-1.84v1.84ZM118.47,13.73c-.44,0-.79.36-.79.79v8.22h-8.22c-.44,0-.79.36-.79.79v6.61c.52.35,1.05.69,1.59,1.01v-6.83h7.43v10.03c.52.12,1.05.21,1.59.27V15.32h10.81v16.81l1.59-1.15v-6.65h7.43v3.17l.33.23c.3-.39.74-.66,1.25-.73v-3.48c0-.44-.36-.79-.79-.79h-8.22v-8.22c0-.44-.36-.79-.79-.79h-12.39ZM119.96,8.91l-.28.2h0s-5.58,4.03-5.58,4.03v-3.62c0-.23-.11-.45-.3-.59h0s0-.03,0-.03c-.25-.18-.59-.18-.85,0l-.28.2h0s-5.58,4.03-5.58,4.03v-3.62c0-.23-.11-.45-.3-.59h0s0-.03,0-.03c-.25-.18-.59-.18-.85,0l-7.01,5.08c-.19.14-.3.35-.3.59v8.11c.49.33.97.68,1.45,1.02v-8.77l5.56-4.02v3.61c0,.23.11.45.3.59l.04-.03-.02.06c.25.18.59.18.85,0l.28-.2h0s5.56-4.02,5.56-4.02v3.61c0,.23.11.45.3.59l.04-.03-.02.06c.25.18.59.18.85,0l.28-.2h0s5.56-4.02,5.56-4.02v1.89h1.45v-3.28c0-.23-.11-.45-.3-.59h0s.01-.03.01-.03c-.13-.09-.27-.14-.42-.14s-.3.05-.42.14"/>
    </clipPath>
    <linearGradient id="Degradado_sin_nombre_3" data-name="Degradado sin nombre 3" x1="1768.76" y1="607.43" x2="1769.72" y2="607.43" gradientTransform="translate(-91329.61 -266303.57) rotate(90) scale(150.55 -150.55)" gradientUnits="userSpaceOnUse">
      <stop offset="0" stop-color="#e72577"/>
      <stop offset=".19" stop-color="#e72577"/>
      <stop offset=".23" stop-color="#cc307c"/>
      <stop offset=".34" stop-color="#81538c"/>
      <stop offset=".42" stop-color="#536896"/>
      <stop offset=".46" stop-color="#41719a"/>
      <stop offset=".63" stop-color="#337fa4"/>
      <stop offset=".94" stop-color="#0fa7be"/>
      <stop offset="1" stop-color="#08afc4"/>
    </linearGradient>
  </defs>
  <path class="cls-4" d="M204.73,72.86v7.14c-1.35.22-2.6.33-3.75.33-2.88,0-5.03-.62-6.46-1.88-1.43-1.25-2.14-3.17-2.15-5.76,0-2.56.73-4.49,2.19-5.79,1.46-1.3,3.58-1.95,6.36-1.95,1.19,0,2.31.13,3.38.38v2.72c-1.06-.24-2.09-.36-3.09-.36-1.25,0-2.26.18-3.05.52-.79.34-1.37.88-1.75,1.62-.38.74-.57,1.71-.57,2.92,0,1.69.4,2.93,1.2,3.71.8.78,2.03,1.17,3.69,1.17.21,0,.52,0,.93-.02v-4.74h3.08Z"/>
  <path class="cls-4" d="M210.19,79.5c-1.06-.56-1.88-1.42-2.46-2.57-.58-1.15-.87-2.58-.87-4.28s.29-3.13.87-4.28c.58-1.15,1.4-2.01,2.46-2.57,1.06-.56,2.32-.85,3.78-.85s2.72.28,3.77.85c1.06.57,1.88,1.43,2.46,2.58.57,1.15.86,2.57.86,4.27s-.29,3.12-.87,4.27c-.58,1.15-1.4,2.01-2.46,2.58-1.06.57-2.31.85-3.77.85s-2.72-.28-3.78-.85M216.71,76.5c.63-.79.95-2.05.95-3.77s-.32-3.08-.95-3.89c-.63-.81-1.55-1.21-2.74-1.21s-2.12.4-2.75,1.19c-.63.79-.95,2.05-.95,3.77s.32,3.09.94,3.89c.63.81,1.55,1.21,2.76,1.21s2.11-.39,2.74-1.19"/>
  <path class="cls-4" d="M234.17,73.59c.49.6.74,1.38.74,2.36s-.25,1.76-.74,2.41c-.49.65-1.28,1.14-2.37,1.47-1.09.33-2.53.5-4.31.5-.64,0-1.34-.03-2.12-.08-.78-.05-1.48-.13-2.12-.21v-14.55c.71-.16,1.49-.28,2.35-.38.85-.1,1.68-.14,2.48-.14,2.22,0,3.85.34,4.87,1.03,1.03.69,1.54,1.74,1.54,3.15,0,.8-.21,1.49-.63,2.07-.42.58-1.01.98-1.77,1.2.89.19,1.58.58,2.07,1.18M226.5,67.55v3.7h2.13c.99,0,1.7-.16,2.12-.47.42-.31.64-.8.64-1.47,0-.46-.1-.83-.29-1.11-.19-.28-.49-.49-.91-.63-.42-.13-.98-.2-1.69-.2s-1.35.06-2,.18M230.44,77.69c.51-.15.87-.38,1.08-.68.22-.3.33-.7.33-1.19,0-.73-.22-1.26-.68-1.59-.45-.33-1.19-.5-2.21-.5h-2.46v4.11c.51.05,1.13.08,1.87.08.87,0,1.56-.08,2.07-.23"/>
  <rect class="cls-4" x="236.8" y="65.15" width="3.31" height="15.01"/>
  <polygon class="cls-4" points="246.09 77.52 253.5 77.52 253.5 80.16 242.82 80.16 242.82 65.15 253.4 65.15 253.4 67.79 246.09 67.79 246.09 71.16 252.36 71.16 252.36 73.8 246.09 73.8 246.09 77.52"/>
  <path class="cls-4" d="M264.44,80.16l-3.84-5.51h-.18c-.47,0-1-.02-1.58-.05v5.56h-3.26v-14.67c.72-.16,1.49-.28,2.3-.38.81-.09,1.61-.14,2.41-.14,2.18,0,3.81.39,4.89,1.18,1.08.79,1.62,2,1.62,3.64,0,1.07-.26,1.97-.78,2.7-.52.73-1.26,1.28-2.24,1.64l4.27,6.03h-3.61ZM258.84,72.11c.57.06,1.12.09,1.64.09,1.1,0,1.91-.19,2.43-.57.52-.38.78-.99.78-1.83s-.25-1.44-.75-1.82c-.5-.38-1.27-.57-2.32-.57-.6,0-1.19.05-1.78.15v4.55Z"/>
  <polygon class="cls-4" points="279.45 65.15 282.57 65.15 282.57 80.16 279.23 80.16 272.7 70.11 272.7 80.16 269.58 80.16 269.58 65.15 272.91 65.15 279.45 75.2 279.45 65.15"/>
  <path class="cls-4" d="M288.09,79.5c-1.06-.56-1.88-1.42-2.46-2.57-.58-1.15-.87-2.58-.87-4.28s.29-3.13.87-4.28c.58-1.15,1.4-2.01,2.46-2.57,1.06-.56,2.32-.85,3.78-.85s2.72.28,3.77.85c1.06.57,1.88,1.43,2.46,2.58.57,1.15.86,2.57.86,4.27s-.29,3.12-.87,4.27c-.58,1.15-1.4,2.01-2.46,2.58-1.06.57-2.31.85-3.77.85s-2.72-.28-3.78-.85M294.61,76.5c.63-.79.95-2.05.95-3.77s-.32-3.08-.95-3.89c-.63-.81-1.55-1.21-2.74-1.21s-2.12.4-2.75,1.19c-.63.79-.95,2.05-.95,3.77s.32,3.09.95,3.89c.63.81,1.55,1.21,2.75,1.21s2.11-.39,2.74-1.19"/>
  <path class="cls-4" d="M306.27,80.07v-14.58c.7-.16,1.48-.28,2.32-.37.84-.09,1.66-.13,2.45-.13,2.76,0,4.83.63,6.21,1.88,1.38,1.26,2.07,3.18,2.07,5.79,0,1.78-.33,3.24-.99,4.37-.66,1.13-1.64,1.96-2.96,2.49-1.31.53-2.98.8-5,.8-1.44,0-2.81-.08-4.12-.24M313.88,77.13c.68-.33,1.2-.86,1.53-1.59.34-.73.51-1.69.51-2.89s-.17-2.14-.51-2.88c-.34-.73-.85-1.27-1.54-1.61-.68-.34-1.55-.51-2.6-.51-.54,0-1.1.05-1.69.15v9.74c.43.05.99.07,1.67.07,1.07,0,1.95-.17,2.63-.5"/>
  <polygon class="cls-4" points="324.8 77.52 332.2 77.52 332.2 80.16 321.52 80.16 321.52 65.15 332.1 65.15 332.1 67.79 324.8 67.79 324.8 71.16 331.07 71.16 331.07 73.8 324.8 73.8 324.8 77.52"/>
  <polygon class="cls-4" points="339.39 80.16 339.39 65.15 342.7 65.15 342.7 77.41 349.61 77.41 349.61 80.16 339.39 80.16"/>
  <path class="cls-4" d="M361.15,80.16l-1.24-4.01h-5.58l-1.24,4.01h-3.23l4.86-15.01h4.84l4.86,15.01h-3.26ZM355.13,73.53h3.96l-1.98-6.4-1.98,6.4Z"/>
  <path class="cls-4" d="M371.01,65.41c1.54-.3,3.06-.45,4.55-.45,2.26,0,3.95.44,5.07,1.32,1.12.88,1.67,2.25,1.67,4.11s-.55,3.13-1.65,4.05c-1.1.91-2.72,1.37-4.88,1.37-.3,0-.79-.01-1.45-.04v4.39h-3.31v-14.75ZM378.3,72.64c.52-.46.78-1.2.78-2.23s-.26-1.79-.78-2.26c-.52-.47-1.33-.71-2.43-.71-.56,0-1.07.04-1.54.12v5.68c.49.06.99.09,1.48.09,1.14,0,1.97-.23,2.49-.69"/>
  <path class="cls-4" d="M393.27,80.16l-3.84-5.51h-.18c-.47,0-1-.02-1.58-.05v5.56h-3.26v-14.67c.72-.16,1.49-.28,2.3-.38.81-.09,1.61-.14,2.41-.14,2.18,0,3.81.39,4.89,1.18,1.08.79,1.62,2,1.62,3.64,0,1.07-.26,1.97-.78,2.7-.52.73-1.26,1.28-2.24,1.64l4.27,6.03h-3.61ZM387.67,72.11c.57.06,1.12.09,1.64.09,1.1,0,1.91-.19,2.43-.57.52-.38.78-.99.78-1.83s-.25-1.44-.75-1.82c-.5-.38-1.27-.57-2.32-.57-.6,0-1.19.05-1.78.15v4.55Z"/>
  <path class="cls-4" d="M400.52,79.5c-1.06-.56-1.88-1.42-2.46-2.57-.58-1.15-.87-2.58-.87-4.28s.29-3.13.87-4.28c.58-1.15,1.4-2.01,2.46-2.57,1.06-.56,2.32-.85,3.78-.85s2.72.28,3.77.85c1.06.57,1.88,1.43,2.46,2.58.57,1.15.86,2.57.86,4.27s-.29,3.12-.87,4.27c-.58,1.15-1.4,2.01-2.46,2.58-1.06.57-2.32.85-3.77.85s-2.72-.28-3.78-.85M407.04,76.5c.63-.79.94-2.05.94-3.77s-.32-3.08-.95-3.89c-.63-.81-1.55-1.21-2.74-1.21s-2.12.4-2.75,1.19c-.63.79-.95,2.05-.95,3.77s.32,3.09.95,3.89c.63.81,1.55,1.21,2.75,1.21s2.11-.39,2.74-1.19"/>
  <polygon class="cls-4" points="423.14 65.15 426.37 65.15 421.55 80.16 416.65 80.16 411.82 65.15 415.28 65.15 419.19 77.65 423.14 65.15"/>
  <rect class="cls-4" x="427.73" y="65.15" width="3.31" height="15.01"/>
  <polygon class="cls-4" points="443.62 65.15 446.74 65.15 446.74 80.16 443.41 80.16 436.87 70.11 436.87 80.16 433.75 80.16 433.75 65.15 437.08 65.15 443.62 75.2 443.62 65.15"/>
  <path class="cls-4" d="M450.94,78.49c-1.34-1.24-2-3.18-2-5.8s.69-4.48,2.06-5.78c1.38-1.3,3.36-1.95,5.97-1.95,1.16,0,2.23.12,3.22.36v2.72c-.98-.23-1.97-.35-2.97-.35-1.1,0-2,.17-2.7.51-.7.34-1.23.87-1.58,1.6-.35.73-.52,1.68-.52,2.86s.17,2.17.52,2.9c.35.73.86,1.26,1.54,1.59.68.33,1.56.49,2.63.49.96,0,1.99-.16,3.08-.48v2.73c-.49.15-1.02.27-1.61.35-.59.08-1.18.13-1.77.13-2.57,0-4.53-.62-5.86-1.86"/>
  <rect class="cls-4" x="462.02" y="65.15" width="3.31" height="15.01"/>
  <path class="cls-4" d="M478.12,80.16l-1.24-4.01h-5.58l-1.24,4.01h-3.23l4.86-15.01h4.84l4.86,15.01h-3.26ZM472.11,73.53h3.96l-1.98-6.4-1.98,6.4Z"/>
  <path class="cls-4" d="M487.99,80.07v-14.58c.7-.16,1.48-.28,2.32-.37.84-.09,1.66-.13,2.46-.13,2.76,0,4.83.63,6.21,1.88,1.38,1.26,2.07,3.18,2.07,5.79,0,1.78-.33,3.24-.99,4.37-.66,1.13-1.64,1.96-2.96,2.49-1.31.53-2.98.8-5,.8-1.44,0-2.81-.08-4.11-.24M495.6,77.13c.68-.33,1.19-.86,1.53-1.59.34-.73.51-1.69.51-2.89s-.17-2.14-.51-2.88c-.34-.73-.85-1.27-1.54-1.61-.68-.34-1.55-.51-2.6-.51-.54,0-1.1.05-1.69.15v9.74c.43.05.99.07,1.67.07,1.07,0,1.95-.17,2.63-.5"/>
  <polygon class="cls-4" points="506.52 77.52 513.92 77.52 513.92 80.16 503.24 80.16 503.24 65.15 513.82 65.15 513.82 67.79 506.52 67.79 506.52 71.16 512.79 71.16 512.79 73.8 506.52 73.8 506.52 77.52"/>
  <path class="cls-2" d="M216.93,106.75c1.08,1.31,1.62,3.03,1.62,5.16s-.54,3.86-1.61,5.27c-1.08,1.41-2.81,2.49-5.2,3.22-2.39.73-5.53,1.1-9.43,1.1-1.4,0-2.94-.06-4.64-.18-1.7-.12-3.24-.27-4.64-.47v-31.86c1.56-.34,3.27-.61,5.14-.82,1.87-.21,3.68-.31,5.43-.31,4.86,0,8.42.75,10.67,2.25,2.25,1.5,3.37,3.8,3.37,6.89,0,1.75-.46,3.26-1.38,4.53-.92,1.27-2.21,2.15-3.87,2.62,1.94.41,3.46,1.28,4.54,2.59M200.13,93.53v8.1h4.67c2.17,0,3.71-.34,4.64-1.03.93-.69,1.39-1.76,1.39-3.21,0-1.01-.21-1.82-.62-2.44-.42-.62-1.08-1.08-2-1.38-.92-.29-2.15-.44-3.69-.44s-2.95.13-4.38.4M208.75,115.72c1.1-.33,1.9-.83,2.37-1.5.48-.67.71-1.53.71-2.6,0-1.6-.49-2.76-1.48-3.48-.99-.73-2.6-1.09-4.84-1.09h-5.39v8.99c1.11.12,2.48.18,4.09.18,1.92,0,3.42-.17,4.53-.5"/>
  <path class="cls-2" d="M225.91,118.1c-2.25-2.3-3.37-5.84-3.37-10.6v-19.23h7.28v19.94c0,2.57.54,4.46,1.62,5.64,1.08,1.19,2.75,1.78,5.01,1.78s3.92-.59,5.01-1.78c1.08-1.18,1.62-3.06,1.62-5.64v-19.94h7.14v19.23c0,4.77-1.11,8.3-3.34,10.6-2.22,2.3-5.7,3.45-10.44,3.45s-8.29-1.15-10.54-3.45"/>
  <polygon class="cls-2" points="263.15 115.36 279.37 115.36 279.37 121.13 255.98 121.13 255.98 88.27 279.15 88.27 279.15 94.04 263.15 94.04 263.15 101.44 276.88 101.44 276.88 107.21 263.15 107.21 263.15 115.36"/>
  <polygon class="cls-2" points="305.52 88.27 312.35 88.27 312.35 121.13 305.05 121.13 290.74 99.13 290.74 121.13 283.91 121.13 283.91 88.27 291.21 88.27 305.52 110.27 305.52 88.27"/>
  <path class="cls-2" d="M324.44,119.7c-2.32-1.24-4.12-3.11-5.38-5.63-1.27-2.52-1.9-5.64-1.9-9.37s.63-6.85,1.9-9.37c1.27-2.52,3.06-4.39,5.38-5.63,2.32-1.23,5.08-1.85,8.27-1.85s5.95.62,8.27,1.87c2.32,1.24,4.11,3.12,5.38,5.64,1.26,2.52,1.89,5.63,1.89,9.35s-.63,6.83-1.9,9.35c-1.27,2.52-3.06,4.4-5.39,5.64-2.32,1.24-5.07,1.87-8.24,1.87s-5.94-.62-8.27-1.86M338.72,113.12c1.38-1.73,2.07-4.49,2.07-8.26s-.7-6.75-2.08-8.52c-1.39-1.77-3.39-2.65-6-2.65s-4.63.87-6.02,2.6c-1.39,1.73-2.08,4.49-2.08,8.26s.69,6.76,2.07,8.53c1.38,1.76,3.39,2.64,6.03,2.64s4.63-.87,6.01-2.6"/>
  <path class="cls-2" d="M356.51,121.19c-1.6-.24-3.07-.59-4.42-1.03v-5.86c1.38.44,2.9.8,4.55,1.05,1.65.26,3.2.39,4.64.39,2.12,0,3.66-.32,4.61-.97.95-.65,1.42-1.59,1.42-2.85,0-.7-.15-1.28-.43-1.74-.29-.47-.78-.87-1.46-1.22-.68-.35-1.64-.69-2.87-1.01l-2.47-.64c-2.94-.73-5.13-1.86-6.59-3.41-1.46-1.55-2.18-3.56-2.18-6.05,0-3.18,1.16-5.64,3.47-7.38,2.32-1.74,5.73-2.61,10.26-2.61,1.44,0,2.83.08,4.17.26,1.34.17,2.56.4,3.64.7v5.88c-1.05-.33-2.23-.58-3.53-.75-1.3-.18-2.59-.27-3.88-.27-2.46,0-4.23.33-5.3.99-1.07.66-1.6,1.59-1.6,2.81,0,.67.13,1.22.38,1.67.25.44.68.83,1.28,1.15.6.32,1.44.64,2.53.93l2.49.62c3.21.8,5.56,1.97,7.07,3.51,1.51,1.54,2.26,3.57,2.26,6.08,0,2.09-.53,3.89-1.58,5.42-1.05,1.52-2.57,2.69-4.55,3.5-1.98.81-4.35,1.21-7.11,1.21-1.6,0-3.2-.12-4.79-.37"/>
  <path class="cls-2" d="M411.99,121.13l-2.71-8.77h-12.22l-2.72,8.77h-7.08l10.64-32.86h10.59l10.64,32.86h-7.14ZM398.82,106.61h8.68l-4.34-14.01-4.34,14.01Z"/>
  <rect class="cls-2" x="422.41" y="88.27" width="7.25" height="32.86"/>
  <path class="cls-2" d="M454.99,121.13l-8.41-12.06h-.4c-1.04,0-2.19-.04-3.45-.11v12.17h-7.14v-32.13c1.57-.34,3.25-.62,5.03-.82s3.54-.31,5.27-.31c4.76,0,8.33.86,10.7,2.59,2.37,1.73,3.56,4.38,3.56,7.96,0,2.34-.57,4.31-1.7,5.91-1.14,1.6-2.77,2.8-4.91,3.6l9.35,13.21h-7.9ZM442.72,103.5c1.25.13,2.44.2,3.58.2,2.4,0,4.18-.41,5.32-1.24,1.14-.83,1.71-2.17,1.71-4.02s-.55-3.15-1.64-3.98c-1.09-.84-2.78-1.25-5.08-1.25-1.3,0-2.6.11-3.89.33v9.97Z"/>
  <polygon class="cls-2" points="473.41 115.36 489.63 115.36 489.63 121.13 466.25 121.13 466.25 88.27 489.41 88.27 489.41 94.04 473.41 94.04 473.41 101.44 487.14 101.44 487.14 107.21 473.41 107.21 473.41 115.36"/>
  <path class="cls-2" d="M497.63,121.19c-1.6-.24-3.07-.59-4.42-1.03v-5.86c1.38.44,2.9.8,4.55,1.05,1.65.26,3.2.39,4.64.39,2.12,0,3.66-.32,4.61-.97.95-.65,1.42-1.59,1.42-2.85,0-.7-.15-1.28-.43-1.74-.29-.47-.78-.87-1.46-1.22-.68-.35-1.64-.69-2.87-1.01l-2.47-.64c-2.94-.73-5.13-1.86-6.59-3.41-1.46-1.55-2.18-3.56-2.18-6.05,0-3.18,1.16-5.64,3.47-7.38,2.31-1.74,5.73-2.61,10.26-2.61,1.44,0,2.83.08,4.17.26,1.34.17,2.56.4,3.64.7v5.88c-1.05-.33-2.23-.58-3.53-.75-1.3-.18-2.59-.27-3.88-.27-2.46,0-4.23.33-5.3.99-1.07.66-1.6,1.59-1.6,2.81,0,.67.13,1.22.38,1.67.25.44.68.83,1.28,1.15.6.32,1.44.64,2.53.93l2.49.62c3.21.8,5.56,1.97,7.07,3.51,1.51,1.54,2.26,3.57,2.26,6.08,0,2.09-.53,3.89-1.58,5.42-1.05,1.52-2.57,2.69-4.55,3.5-1.98.81-4.35,1.21-7.11,1.21-1.6,0-3.2-.12-4.79-.37"/>
  <g class="cls-5">
    <rect class="cls-1" x="27.94" y="-8.5" width="178.33" height="202.43" transform="translate(-27.64 55.86) rotate(-24.09)"/>
  </g>
</svg>