<?xml version="1.0" encoding="UTF-8"?>
<svg id="Capa_1" data-name="Capa 1" xmlns="http://www.w3.org/2000/svg" version="1.1" viewBox="0 0 163.34 51.69">
  <defs>
    <style>
      .cls-1 {
        fill: #039aae;
        stroke-width: 0px;
      }
    </style>
  </defs>
  <path class="cls-1" d="M1.57,20.71V4.17h3.62l5.22,11.61h-.41l5.12-11.61h3.62v16.54h-2.79V6.78h.65l-5.19,11.57h-2.5L3.59,6.78h.77v13.92H1.57Z"/>
  <path class="cls-1" d="M22.04,20.71V4.17h2.98v16.54h-2.98Z"/>
  <path class="cls-1" d="M28.29,20.71V4.17h3.02l8.42,12.9h-.56V4.17h2.82v16.54h-3.02l-8.42-12.9h.56v12.9h-2.82Z"/>
  <path class="cls-1" d="M45.24,20.71V4.17h2.98v16.54h-2.98Z"/>
  <path class="cls-1" d="M55.32,20.92c-.75,0-1.51-.06-2.28-.18s-1.48-.29-2.15-.51v-2.46c.46.16.95.29,1.46.39.51.1,1.02.18,1.53.24.51.06.99.08,1.44.08,1.2,0,2.06-.2,2.59-.6.53-.4.79-.97.79-1.71,0-.63-.2-1.12-.59-1.47-.39-.35-1.1-.65-2.13-.91l-1.12-.29c-1.43-.37-2.51-.93-3.23-1.68-.73-.76-1.09-1.75-1.09-2.99,0-1.52.54-2.71,1.63-3.58s2.72-1.3,4.89-1.3c.71,0,1.39.04,2.05.13.66.09,1.25.21,1.77.36v2.46c-.54-.17-1.13-.3-1.77-.39s-1.27-.13-1.9-.13c-.9,0-1.62.09-2.16.28-.54.19-.93.45-1.17.79s-.36.74-.36,1.21c0,.6.18,1.06.53,1.4.35.34.99.63,1.92.88l1.12.29c1.05.26,1.92.6,2.6,1.02s1.19.94,1.51,1.54c.33.61.49,1.33.49,2.16,0,1.04-.25,1.92-.76,2.66s-1.24,1.3-2.18,1.7c-.95.39-2.1.59-3.44.59Z"/>
  <path class="cls-1" d="M67.15,20.71V6.68h-5.32v-2.51h13.63v2.51h-5.32v14.02h-3Z"/>
  <path class="cls-1" d="M77.25,20.71V4.17h11.12v2.42h-8.17v11.69h8.28v2.42h-11.23ZM79.05,13.45v-2.42h8.2v2.42h-8.2Z"/>
  <path class="cls-1" d="M90.92,20.71V4.5c.47-.1.97-.19,1.5-.27.53-.08,1.08-.15,1.65-.19.57-.04,1.15-.07,1.75-.07,2.31,0,4.04.42,5.19,1.26,1.15.84,1.73,2.14,1.73,3.92,0,1.15-.27,2.11-.82,2.88-.55.77-1.34,1.36-2.37,1.75-1.03.39-2.28.59-3.74.59-.38,0-.72,0-1.02-.02-.3-.01-.61-.03-.93-.04v6.4h-2.94ZM95.85,12.11c1.4,0,2.43-.24,3.08-.71.66-.47.98-1.22.98-2.25,0-.69-.14-1.24-.41-1.68-.27-.43-.69-.75-1.25-.96s-1.28-.31-2.15-.31c-.45,0-.85.02-1.2.06-.35.04-.7.09-1.04.15v5.6c.24.02.46.04.67.06.2.01.41.03.62.03.21,0,.45.01.7.01ZM100.77,20.71l-5.5-7.69h3.23l5.58,7.69h-3.31Z"/>
  <path class="cls-1" d="M106.04,20.71V4.17h2.98v16.54h-2.98Z"/>
  <path class="cls-1" d="M119.14,20.92c-1.5,0-2.8-.3-3.92-.91-1.12-.6-1.99-1.53-2.61-2.78-.62-1.25-.93-2.85-.93-4.79s.31-3.54.93-4.79c.62-1.25,1.49-2.18,2.61-2.78,1.12-.6,2.42-.91,3.92-.91s2.82.3,3.93.91c1.12.6,1.98,1.53,2.6,2.79.62,1.25.93,2.85.93,4.79s-.31,3.53-.93,4.79c-.62,1.25-1.49,2.18-2.61,2.79s-2.43.91-3.93.91ZM119.14,18.47c.91,0,1.69-.2,2.35-.59.66-.39,1.16-1.03,1.51-1.91.36-.88.53-2.03.53-3.47s-.18-2.67-.54-3.56c-.36-.89-.87-1.54-1.52-1.94s-1.43-.6-2.33-.6-1.67.2-2.33.59c-.66.39-1.17,1.02-1.53,1.9-.36.88-.54,2.04-.54,3.48s.18,2.68.54,3.58c.36.89.86,1.54,1.52,1.93.66.4,1.43.59,2.34.59Z"/>
  <path class="cls-1" d="M139.14,20.86c-.45,0-.91,0-1.38-.03-.47-.02-.96-.05-1.45-.08-.49-.04-.99-.09-1.49-.15V4.5c.48-.1,1-.2,1.56-.27.55-.08,1.12-.14,1.69-.18.57-.04,1.13-.06,1.67-.06,2.91,0,5.1.69,6.58,2.06,1.48,1.38,2.22,3.5,2.22,6.39,0,1.97-.35,3.57-1.04,4.81-.69,1.24-1.74,2.15-3.13,2.74-1.39.58-3.14.88-5.23.88ZM139.88,18.4c1.24,0,2.28-.2,3.11-.6.83-.4,1.45-1.04,1.86-1.92.41-.88.61-2.03.61-3.46s-.21-2.57-.61-3.45c-.41-.88-1.03-1.52-1.85-1.93-.82-.41-1.85-.61-3.07-.61-.33,0-.68.02-1.04.05-.37.03-.73.08-1.08.14v11.68c.33.04.67.06,1,.08.33.02.69.02,1.07.02Z"/>
  <path class="cls-1" d="M151.19,20.71V4.17h11.12v2.42h-8.17v11.69h8.28v2.42h-11.23ZM152.99,13.45v-2.42h8.2v2.42h-8.2Z"/>
  <path class="cls-1" d="M10.03,47.69c-2.02,0-3.7-.3-5.05-.9-1.35-.6-2.36-1.52-3.04-2.76s-1.02-2.82-1.02-4.74.35-3.53,1.05-4.79,1.72-2.19,3.05-2.8c1.33-.62,2.94-.92,4.83-.92.64,0,1.27.04,1.89.11.62.08,1.23.19,1.83.33v2.49c-.61-.16-1.2-.27-1.77-.33-.57-.07-1.14-.1-1.71-.1-1.33,0-2.45.2-3.34.59-.89.4-1.57,1.04-2.02,1.92-.45.89-.68,2.06-.68,3.53,0,1.39.21,2.51.64,3.38.42.87,1.07,1.5,1.92,1.9.86.4,1.93.6,3.21.6.48,0,.94-.02,1.4-.06s.88-.09,1.26-.16l-1.26,1.14v-6.66h2.8v7.87c-.71.12-1.39.21-2.03.26-.65.06-1.3.08-1.94.08Z"/>
  <path class="cls-1" d="M24,47.74c-1.5,0-2.8-.3-3.92-.9-1.12-.6-1.99-1.53-2.61-2.78-.62-1.25-.93-2.85-.93-4.79s.31-3.54.93-4.79c.62-1.25,1.49-2.18,2.61-2.78,1.12-.6,2.42-.91,3.92-.91s2.82.3,3.93.91c1.12.6,1.98,1.53,2.6,2.79.62,1.25.93,2.85.93,4.79s-.31,3.53-.93,4.79c-.62,1.25-1.49,2.18-2.61,2.79-1.12.6-2.43.9-3.93.9ZM24,45.29c.91,0,1.69-.2,2.35-.59.66-.39,1.16-1.03,1.51-1.91.35-.88.53-2.03.53-3.47s-.18-2.67-.54-3.56c-.36-.89-.86-1.54-1.52-1.94s-1.43-.6-2.33-.6-1.67.2-2.33.59c-.66.39-1.17,1.02-1.53,1.9-.36.88-.54,2.04-.54,3.48s.18,2.68.54,3.58c.36.89.86,1.54,1.52,1.93s1.43.59,2.34.59Z"/>
  <path class="cls-1" d="M38.58,47.69c-.45,0-.93-.01-1.44-.03s-1.02-.06-1.54-.1c-.52-.04-1.01-.1-1.48-.17v-16.07c.49-.1,1.01-.2,1.56-.28.55-.08,1.12-.14,1.7-.18s1.17-.06,1.76-.06c1.59,0,2.88.17,3.89.5,1,.33,1.74.83,2.21,1.51.47.67.7,1.52.7,2.53,0,.62-.12,1.19-.35,1.71-.23.52-.58.96-1.04,1.31-.47.35-1.05.59-1.75.72l.02-.15c1.14.15,2.02.56,2.65,1.25.62.68.94,1.6.94,2.75,0,.77-.14,1.45-.42,2.04-.28.59-.74,1.09-1.36,1.49-.62.4-1.43.71-2.42.92-1,.21-2.21.31-3.64.31ZM39.33,45.47c1.09,0,1.95-.1,2.58-.29.63-.19,1.08-.49,1.34-.88.26-.39.4-.88.4-1.48,0-.9-.28-1.56-.85-1.98s-1.48-.63-2.74-.63h-3.35v-2.28h3.02c.83,0,1.5-.09,2-.27s.86-.46,1.08-.82.34-.81.34-1.36c0-.87-.27-1.5-.82-1.88-.55-.38-1.48-.58-2.8-.58-.49,0-.93.02-1.33.05-.39.03-.78.08-1.15.15v12.13c.4.04.79.07,1.15.09.37.01.75.02,1.14.02Z"/>
  <path class="cls-1" d="M48.73,47.52v-16.54h2.98v16.54h-2.98Z"/>
  <path class="cls-1" d="M54.97,47.52v-16.54h11.12v2.42h-8.17v11.69h8.28v2.42h-11.23ZM56.77,40.27v-2.42h8.2v2.42h-8.2Z"/>
  <path class="cls-1" d="M68.64,47.52v-16.2c.47-.1.97-.19,1.5-.27.53-.08,1.08-.15,1.65-.19.57-.04,1.15-.07,1.75-.07,2.31,0,4.04.42,5.19,1.26,1.15.84,1.73,2.14,1.73,3.92,0,1.15-.27,2.11-.82,2.88-.55.77-1.34,1.36-2.37,1.75-1.03.39-2.28.59-3.74.59-.38,0-.72,0-1.02-.02-.3-.01-.61-.03-.93-.04v6.4h-2.94ZM73.57,38.93c1.4,0,2.43-.24,3.08-.71.66-.47.98-1.22.98-2.25,0-.69-.14-1.24-.41-1.68-.27-.43-.69-.75-1.25-.96s-1.28-.31-2.15-.31c-.45,0-.85.02-1.2.06-.35.04-.7.09-1.04.15v5.6c.24.02.46.04.67.06.2.01.41.03.62.03.21,0,.45.01.7.01ZM78.48,47.52l-5.5-7.69h3.23l5.58,7.69h-3.31Z"/>
  <path class="cls-1" d="M83.76,47.52v-16.54h3.02l8.41,12.9h-.56v-12.9h2.82v16.54h-3.02l-8.41-12.9h.56v12.9h-2.82Z"/>
  <path class="cls-1" d="M107.56,47.74c-1.5,0-2.8-.3-3.92-.9-1.12-.6-1.99-1.53-2.61-2.78-.62-1.25-.93-2.85-.93-4.79s.31-3.54.93-4.79c.62-1.25,1.49-2.18,2.61-2.78,1.12-.6,2.42-.91,3.92-.91s2.82.3,3.93.91c1.12.6,1.99,1.53,2.6,2.79.62,1.25.93,2.85.93,4.79s-.31,3.53-.93,4.79-1.49,2.18-2.61,2.79c-1.12.6-2.43.9-3.93.9ZM107.56,45.29c.91,0,1.69-.2,2.35-.59s1.16-1.03,1.51-1.91c.35-.88.53-2.03.53-3.47s-.18-2.67-.54-3.56c-.36-.89-.86-1.54-1.52-1.94-.66-.4-1.43-.6-2.34-.6s-1.67.2-2.33.59c-.66.39-1.17,1.02-1.52,1.9-.36.88-.54,2.04-.54,3.48s.18,2.68.54,3.58c.36.89.86,1.54,1.52,1.93.66.39,1.43.59,2.33.59Z"/>
</svg>