<?xml version="1.0" encoding="UTF-8"?>
<svg id="Capa_1" data-name="Capa 1" xmlns="http://www.w3.org/2000/svg" version="1.1" viewBox="0 0 217.94 53.44">
  <defs>
    <style>
      .cls-1 {
        fill: #039aae;
        stroke-width: 0px;
      }
    </style>
  </defs>
  <path class="cls-1" d="M8.3,24.01c-.75,0-1.51-.06-2.28-.18-.77-.12-1.48-.29-2.15-.51v-2.46c.46.16.95.29,1.46.39.51.1,1.02.18,1.53.24.51.06.99.08,1.44.08,1.2,0,2.06-.2,2.59-.6.53-.4.79-.97.79-1.71,0-.63-.2-1.12-.59-1.47-.39-.35-1.1-.65-2.13-.91l-1.12-.29c-1.43-.37-2.51-.93-3.24-1.68-.73-.76-1.09-1.75-1.09-2.99,0-1.52.54-2.71,1.63-3.58s2.72-1.3,4.89-1.3c.71,0,1.39.04,2.05.13s1.25.21,1.77.36v2.46c-.54-.17-1.13-.3-1.77-.38-.63-.09-1.27-.13-1.9-.13-.9,0-1.62.09-2.16.28s-.93.45-1.17.79-.36.74-.36,1.21c0,.6.18,1.06.53,1.4.35.34.99.63,1.92.88l1.12.29c1.05.26,1.92.6,2.6,1.02s1.19.94,1.51,1.54c.33.61.49,1.33.49,2.16,0,1.04-.25,1.92-.76,2.66-.51.74-1.23,1.3-2.18,1.7-.95.39-2.09.59-3.44.59Z"/>
  <path class="cls-1" d="M23.6,24.01c-1.54,0-2.8-.25-3.79-.74-.98-.5-1.71-1.25-2.18-2.26-.47-1.01-.71-2.29-.71-3.84V7.26h2.99v10.19c0,1.43.3,2.47.91,3.11.6.64,1.53.97,2.78.97s2.18-.32,2.78-.97c.6-.64.9-1.68.9-3.11V7.26h2.94v9.9c0,1.55-.24,2.83-.7,3.84-.47,1.01-1.19,1.77-2.17,2.26-.98.5-2.22.74-3.74.74Z"/>
  <path class="cls-1" d="M37.85,23.96c-.45,0-.93-.01-1.44-.03-.51-.02-1.02-.06-1.54-.1-.52-.04-1.01-.1-1.48-.17V7.59c.49-.1,1.01-.2,1.56-.28.55-.08,1.12-.14,1.7-.18s1.17-.06,1.76-.06c1.59,0,2.88.17,3.89.5,1.01.33,1.74.83,2.21,1.51.47.67.7,1.52.7,2.53,0,.62-.12,1.19-.35,1.71-.23.52-.58.96-1.04,1.31-.47.35-1.05.59-1.75.72l.02-.14c1.14.15,2.02.56,2.65,1.25s.94,1.6.94,2.75c0,.77-.14,1.45-.42,2.04-.28.59-.74,1.09-1.36,1.49s-1.43.71-2.42.92c-.99.21-2.21.31-3.64.31ZM38.6,21.74c1.09,0,1.95-.1,2.58-.29.63-.19,1.08-.49,1.34-.88.26-.39.4-.88.4-1.48,0-.9-.28-1.56-.85-1.98-.57-.42-1.48-.63-2.74-.63h-3.35v-2.28h3.02c.83,0,1.5-.09,2-.27.5-.18.86-.45,1.08-.82s.33-.81.33-1.36c0-.87-.27-1.5-.82-1.88s-1.48-.58-2.8-.58c-.49,0-.94.02-1.33.05s-.78.08-1.15.15v12.14c.4.04.79.07,1.15.09.37.01.75.02,1.14.02Z"/>
  <path class="cls-1" d="M51.83,24.01c-.75,0-1.51-.06-2.28-.18-.77-.12-1.48-.29-2.15-.51v-2.46c.46.16.95.29,1.46.39.51.1,1.02.18,1.53.24.51.06.99.08,1.44.08,1.2,0,2.06-.2,2.59-.6.53-.4.79-.97.79-1.71,0-.63-.2-1.12-.59-1.47-.39-.35-1.1-.65-2.13-.91l-1.12-.29c-1.43-.37-2.51-.93-3.24-1.68-.73-.76-1.09-1.75-1.09-2.99,0-1.52.54-2.71,1.63-3.58s2.72-1.3,4.89-1.3c.71,0,1.39.04,2.05.13s1.25.21,1.77.36v2.46c-.54-.17-1.13-.3-1.77-.38-.63-.09-1.27-.13-1.9-.13-.9,0-1.62.09-2.16.28s-.93.45-1.17.79-.36.74-.36,1.21c0,.6.18,1.06.53,1.4.35.34.99.63,1.92.88l1.12.29c1.05.26,1.92.6,2.6,1.02s1.19.94,1.51,1.54c.33.61.49,1.33.49,2.16,0,1.04-.25,1.92-.76,2.66-.51.74-1.23,1.3-2.18,1.7-.95.39-2.09.59-3.44.59Z"/>
  <path class="cls-1" d="M60.52,23.8V7.26h11.12v2.42h-8.17v11.69h8.28v2.42h-11.23ZM62.32,16.54v-2.42h8.2v2.42h-8.2Z"/>
  <path class="cls-1" d="M81.52,24.01c-1.29,0-2.44-.16-3.46-.47-1.02-.32-1.88-.81-2.59-1.49-.71-.67-1.25-1.55-1.62-2.62-.37-1.07-.56-2.36-.56-3.87,0-1.93.33-3.52.99-4.78.66-1.26,1.61-2.2,2.87-2.81,1.25-.62,2.77-.92,4.55-.92.63,0,1.24.04,1.83.11.59.07,1.17.18,1.73.32v2.49c-.54-.14-1.09-.25-1.65-.31-.55-.07-1.12-.1-1.7-.1-1.21,0-2.23.2-3.04.59-.81.4-1.42,1.03-1.83,1.91-.41.88-.61,2.03-.61,3.47s.21,2.66.62,3.54c.41.88,1.01,1.5,1.8,1.88.79.38,1.77.57,2.93.57.58,0,1.16-.04,1.72-.13.57-.09,1.15-.23,1.75-.41v2.49c-.54.17-1.12.31-1.77.41s-1.3.15-1.98.15Z"/>
  <path class="cls-1" d="M87.39,23.8V7.59c.47-.1.97-.19,1.5-.27s1.08-.15,1.65-.19,1.15-.07,1.75-.07c2.31,0,4.04.42,5.19,1.26,1.15.84,1.73,2.14,1.73,3.92,0,1.15-.27,2.11-.82,2.88-.55.77-1.34,1.36-2.37,1.75-1.03.39-2.28.59-3.74.59-.38,0-.72,0-1.02-.02-.3-.01-.61-.03-.93-.04v6.4h-2.94ZM92.32,15.2c1.4,0,2.43-.24,3.08-.71.66-.47.98-1.22.98-2.25,0-.68-.14-1.24-.41-1.68-.27-.43-.69-.75-1.25-.96-.56-.21-1.28-.31-2.15-.31-.45,0-.85.02-1.2.06s-.7.09-1.04.15v5.6c.24.02.46.04.67.06s.41.03.63.03c.21,0,.45.01.7.01ZM97.24,23.8l-5.5-7.69h3.23l5.58,7.69h-3.31Z"/>
  <path class="cls-1" d="M102.51,23.8V7.26h11.12v2.42h-8.17v11.69h8.28v2.42h-11.23ZM104.31,16.54v-2.42h8.2v2.42h-8.2Z"/>
  <path class="cls-1" d="M119.93,23.8v-14.02h-5.32v-2.51h13.63v2.51h-5.32v14.02h-3Z"/>
  <path class="cls-1" d="M126.75,23.8l5.55-16.54h4.32l5.55,16.54h-2.96l-4.95-15.21h.35l-4.94,15.21h-2.93ZM130.26,19.05l.65-2.4h7.11l.65,2.4h-8.4Z"/>
  <path class="cls-1" d="M144.03,23.8V7.59c.47-.1.97-.19,1.5-.27s1.08-.15,1.65-.19,1.15-.07,1.75-.07c2.31,0,4.04.42,5.19,1.26,1.15.84,1.73,2.14,1.73,3.92,0,1.15-.27,2.11-.82,2.88-.55.77-1.34,1.36-2.37,1.75-1.03.39-2.28.59-3.74.59-.38,0-.72,0-1.02-.02-.3-.01-.61-.03-.93-.04v6.4h-2.94ZM148.95,15.2c1.4,0,2.43-.24,3.08-.71.66-.47.98-1.22.98-2.25,0-.68-.14-1.24-.41-1.68-.27-.43-.69-.75-1.25-.96-.56-.21-1.28-.31-2.15-.31-.45,0-.85.02-1.2.06s-.7.09-1.04.15v5.6c.24.02.46.04.67.06s.41.03.63.03c.21,0,.45.01.7.01ZM153.87,23.8l-5.5-7.69h3.23l5.58,7.69h-3.31Z"/>
  <path class="cls-1" d="M159.14,23.8V7.26h2.98v16.54h-2.98ZM159.3,5.92l2.01-3.31h3.11l-2.46,3.31h-2.66Z"/>
  <path class="cls-1" d="M163.97,23.8l5.55-16.54h4.32l5.55,16.54h-2.96l-4.95-15.21h.35l-4.94,15.21h-2.93ZM167.48,19.05l.65-2.4h7.11l.65,2.4h-8.4Z"/>
  <path class="cls-1" d="M191.12,23.95c-.45,0-.91,0-1.38-.03-.47-.02-.96-.05-1.45-.08-.49-.04-.99-.09-1.49-.15V7.59c.48-.1,1-.2,1.56-.27.55-.08,1.12-.14,1.69-.18.57-.04,1.13-.06,1.67-.06,2.91,0,5.1.69,6.58,2.06s2.22,3.5,2.22,6.39c0,1.97-.35,3.57-1.04,4.81-.69,1.24-1.74,2.15-3.13,2.74-1.39.58-3.14.88-5.23.88ZM191.86,21.49c1.24,0,2.28-.2,3.11-.6.83-.4,1.45-1.04,1.86-1.92.41-.88.62-2.03.62-3.46s-.21-2.57-.62-3.45c-.41-.88-1.03-1.52-1.85-1.93-.82-.41-1.85-.61-3.07-.61-.33,0-.68.02-1.04.05-.37.03-.73.08-1.08.14v11.68c.33.04.67.06,1,.08.33.01.69.02,1.07.02Z"/>
  <path class="cls-1" d="M203.18,23.8V7.26h11.12v2.42h-8.17v11.69h8.28v2.42h-11.23ZM204.98,16.54v-2.42h8.2v2.42h-8.2Z"/>
  <path class="cls-1" d="M12.97,50.78c-2.02,0-3.7-.3-5.05-.9-1.35-.6-2.36-1.52-3.04-2.76s-1.02-2.82-1.02-4.74.35-3.53,1.05-4.79c.7-1.26,1.72-2.19,3.05-2.8,1.33-.62,2.94-.92,4.83-.92.64,0,1.27.04,1.89.11s1.23.19,1.83.33v2.49c-.61-.16-1.2-.27-1.77-.33-.57-.07-1.14-.1-1.71-.1-1.33,0-2.45.2-3.34.59-.89.4-1.57,1.04-2.02,1.92-.45.89-.68,2.06-.68,3.53,0,1.39.21,2.51.64,3.38.42.87,1.07,1.5,1.92,1.9.86.4,1.93.6,3.21.6.48,0,.94-.02,1.4-.06s.88-.09,1.26-.16l-1.26,1.14v-6.66h2.8v7.87c-.71.12-1.39.21-2.03.26-.65.06-1.3.08-1.94.08Z"/>
  <path class="cls-1" d="M26.94,50.83c-1.5,0-2.8-.3-3.92-.9-1.12-.6-1.99-1.53-2.61-2.78-.62-1.25-.93-2.85-.93-4.79s.31-3.54.93-4.79c.62-1.25,1.49-2.18,2.61-2.78,1.12-.6,2.42-.91,3.92-.91s2.82.3,3.93.91c1.12.6,1.98,1.53,2.6,2.79.62,1.26.93,2.85.93,4.79s-.31,3.53-.93,4.79c-.62,1.25-1.49,2.18-2.61,2.79-1.12.6-2.43.9-3.93.9ZM26.94,48.38c.91,0,1.69-.2,2.35-.59.66-.39,1.16-1.03,1.51-1.91.35-.88.53-2.03.53-3.47s-.18-2.67-.54-3.56c-.36-.89-.86-1.54-1.52-1.94s-1.43-.6-2.33-.6-1.67.2-2.33.59c-.66.39-1.17,1.02-1.53,1.9-.36.88-.54,2.04-.54,3.48s.18,2.68.54,3.58c.36.89.86,1.54,1.52,1.93s1.43.59,2.34.59Z"/>
  <path class="cls-1" d="M41.52,50.78c-.45,0-.93-.01-1.44-.03s-1.02-.06-1.54-.1c-.52-.04-1.01-.1-1.48-.17v-16.07c.49-.1,1.01-.2,1.56-.28.55-.08,1.12-.14,1.7-.18s1.17-.06,1.76-.06c1.59,0,2.88.17,3.89.5,1,.33,1.74.83,2.21,1.51.47.67.7,1.52.7,2.53,0,.62-.12,1.19-.35,1.71-.23.52-.58.96-1.04,1.31-.47.35-1.05.59-1.75.72l.02-.14c1.14.15,2.02.56,2.65,1.25.62.68.94,1.6.94,2.75,0,.77-.14,1.45-.42,2.04-.28.59-.74,1.09-1.36,1.49-.62.4-1.43.71-2.42.92-1,.21-2.21.31-3.64.31ZM42.27,48.56c1.09,0,1.95-.1,2.58-.29.63-.19,1.08-.49,1.34-.88.26-.39.4-.88.4-1.48,0-.9-.28-1.56-.85-1.98s-1.48-.63-2.74-.63h-3.35v-2.28h3.02c.83,0,1.5-.09,2-.27.5-.18.86-.45,1.08-.82s.34-.81.34-1.36c0-.87-.27-1.5-.82-1.88-.55-.38-1.48-.58-2.8-.58-.49,0-.93.02-1.33.05-.39.03-.78.08-1.15.15v12.14c.4.04.79.07,1.15.09.37.01.75.02,1.14.02Z"/>
  <path class="cls-1" d="M51.67,50.61v-16.54h2.98v16.54h-2.98Z"/>
  <path class="cls-1" d="M57.92,50.61v-16.54h11.12v2.42h-8.17v11.69h8.28v2.42h-11.23ZM59.72,43.36v-2.42h8.2v2.42h-8.2Z"/>
  <path class="cls-1" d="M71.58,50.61v-16.2c.47-.1.97-.19,1.5-.27.53-.08,1.08-.15,1.65-.19.57-.04,1.15-.07,1.75-.07,2.31,0,4.04.42,5.19,1.26,1.15.84,1.73,2.14,1.73,3.92,0,1.15-.27,2.11-.82,2.88-.55.77-1.34,1.36-2.37,1.75-1.03.39-2.28.59-3.74.59-.38,0-.72,0-1.02-.02-.3-.01-.61-.03-.93-.04v6.4h-2.94ZM76.51,42.02c1.4,0,2.43-.24,3.08-.71.66-.47.98-1.22.98-2.25,0-.68-.14-1.24-.41-1.68-.27-.43-.69-.75-1.25-.96-.56-.21-1.28-.31-2.15-.31-.45,0-.85.02-1.2.06-.35.04-.7.09-1.04.15v5.6c.24.02.46.04.67.06.2.01.41.03.62.03.21,0,.45.01.7.01ZM81.43,50.61l-5.5-7.69h3.23l5.58,7.69h-3.31Z"/>
  <path class="cls-1" d="M86.7,50.61v-16.54h3.02l8.41,12.9h-.56v-12.9h2.82v16.54h-3.02l-8.41-12.9h.56v12.9h-2.82Z"/>
  <path class="cls-1" d="M110.5,50.83c-1.5,0-2.8-.3-3.92-.9-1.12-.6-1.99-1.53-2.61-2.78-.62-1.25-.93-2.85-.93-4.79s.31-3.54.93-4.79c.62-1.25,1.49-2.18,2.61-2.78s2.42-.91,3.92-.91,2.82.3,3.93.91,1.99,1.53,2.6,2.79c.62,1.26.93,2.85.93,4.79s-.31,3.53-.93,4.79c-.62,1.25-1.49,2.18-2.61,2.79-1.12.6-2.43.9-3.93.9ZM110.5,48.38c.91,0,1.69-.2,2.35-.59s1.16-1.03,1.51-1.91c.35-.88.53-2.03.53-3.47s-.18-2.67-.54-3.56c-.36-.89-.86-1.54-1.52-1.94-.66-.4-1.43-.6-2.34-.6s-1.67.2-2.33.59c-.66.39-1.17,1.02-1.52,1.9-.36.88-.54,2.04-.54,3.48s.18,2.68.54,3.58c.36.89.86,1.54,1.52,1.93.66.39,1.43.59,2.33.59Z"/>
  <path class="cls-1" d="M130.5,50.77c-.45,0-.91,0-1.38-.03-.47-.02-.96-.05-1.45-.08-.49-.04-.99-.09-1.49-.15v-16.1c.48-.1,1-.2,1.56-.27s1.12-.14,1.69-.18,1.13-.06,1.67-.06c2.91,0,5.1.69,6.58,2.06,1.48,1.37,2.22,3.5,2.22,6.39,0,1.97-.35,3.57-1.04,4.81-.69,1.24-1.74,2.15-3.13,2.74-1.39.58-3.14.88-5.23.88ZM131.24,48.31c1.24,0,2.28-.2,3.11-.6.83-.4,1.45-1.04,1.86-1.92.41-.88.61-2.03.61-3.46s-.21-2.57-.61-3.45c-.41-.88-1.03-1.52-1.85-1.93-.82-.41-1.85-.61-3.07-.61-.33,0-.68.02-1.04.05-.37.03-.73.08-1.08.14v11.68c.33.04.67.06,1,.08.33.01.69.02,1.07.02Z"/>
  <path class="cls-1" d="M142.56,50.61v-16.54h2.98v16.54h-2.98Z"/>
  <path class="cls-1" d="M157.31,50.78c-2.02,0-3.7-.3-5.05-.9-1.35-.6-2.36-1.52-3.04-2.76s-1.02-2.82-1.02-4.74.35-3.53,1.05-4.79c.7-1.26,1.72-2.19,3.05-2.8,1.33-.62,2.94-.92,4.83-.92.64,0,1.27.04,1.89.11s1.23.19,1.83.33v2.49c-.61-.16-1.2-.27-1.77-.33-.57-.07-1.14-.1-1.71-.1-1.33,0-2.45.2-3.34.59-.89.4-1.57,1.04-2.02,1.92-.45.89-.68,2.06-.68,3.53,0,1.39.21,2.51.64,3.38.42.87,1.07,1.5,1.92,1.9.86.4,1.93.6,3.21.6.48,0,.94-.02,1.4-.06s.88-.09,1.26-.16l-1.26,1.14v-6.66h2.8v7.87c-.71.12-1.39.21-2.03.26-.65.06-1.3.08-1.94.08Z"/>
  <path class="cls-1" d="M164.43,50.61v-16.54h2.98v16.54h-2.98Z"/>
  <path class="cls-1" d="M174.51,50.61v-14.02h-5.32v-2.51h13.63v2.51h-5.32v14.02h-2.99Z"/>
  <path class="cls-1" d="M181.33,50.61l5.55-16.54h4.32l5.55,16.54h-2.96l-4.95-15.21h.35l-4.94,15.21h-2.93ZM184.83,45.87l.65-2.4h7.11l.65,2.4h-8.4Z"/>
  <path class="cls-1" d="M198.6,50.61v-16.54h2.98v14.02h7.8v2.51h-10.78Z"/>
</svg>